%TF.GenerationSoftware,KiCad,Pcbnew,8.0.1*%
%TF.CreationDate,2024-03-25T17:22:26-07:00*%
%TF.ProjectId,Delay02,44656c61-7930-4322-9e6b-696361645f70,rev?*%
%TF.SameCoordinates,Original*%
%TF.FileFunction,Soldermask,Bot*%
%TF.FilePolarity,Negative*%
%FSLAX46Y46*%
G04 Gerber Fmt 4.6, Leading zero omitted, Abs format (unit mm)*
G04 Created by KiCad (PCBNEW 8.0.1) date 2024-03-25 17:22:26*
%MOMM*%
%LPD*%
G01*
G04 APERTURE LIST*
G04 Aperture macros list*
%AMRoundRect*
0 Rectangle with rounded corners*
0 $1 Rounding radius*
0 $2 $3 $4 $5 $6 $7 $8 $9 X,Y pos of 4 corners*
0 Add a 4 corners polygon primitive as box body*
4,1,4,$2,$3,$4,$5,$6,$7,$8,$9,$2,$3,0*
0 Add four circle primitives for the rounded corners*
1,1,$1+$1,$2,$3*
1,1,$1+$1,$4,$5*
1,1,$1+$1,$6,$7*
1,1,$1+$1,$8,$9*
0 Add four rect primitives between the rounded corners*
20,1,$1+$1,$2,$3,$4,$5,0*
20,1,$1+$1,$4,$5,$6,$7,0*
20,1,$1+$1,$6,$7,$8,$9,0*
20,1,$1+$1,$8,$9,$2,$3,0*%
G04 Aperture macros list end*
%ADD10C,1.600000*%
%ADD11RoundRect,0.250000X0.550000X-0.550000X0.550000X0.550000X-0.550000X0.550000X-0.550000X-0.550000X0*%
%ADD12C,1.400000*%
%ADD13O,1.400000X1.400000*%
%ADD14RoundRect,0.250000X-0.550000X-0.550000X0.550000X-0.550000X0.550000X0.550000X-0.550000X0.550000X0*%
%ADD15R,1.200000X1.200000*%
%ADD16C,1.200000*%
%ADD17R,1.600000X1.600000*%
%ADD18O,1.600000X1.600000*%
%ADD19RoundRect,0.250000X-0.550000X0.550000X-0.550000X-0.550000X0.550000X-0.550000X0.550000X0.550000X0*%
%ADD20R,1.050000X1.500000*%
%ADD21O,1.050000X1.500000*%
%ADD22R,2.400000X1.600000*%
%ADD23O,2.400000X1.600000*%
%ADD24RoundRect,0.250000X0.550000X0.550000X-0.550000X0.550000X-0.550000X-0.550000X0.550000X-0.550000X0*%
%ADD25R,2.200000X2.200000*%
%ADD26O,2.200000X2.200000*%
%ADD27C,2.340000*%
G04 APERTURE END LIST*
D10*
%TO.C,C90*%
X98140000Y-115560000D03*
X100640000Y-115560000D03*
%TD*%
%TO.C,C38*%
X135430000Y-77060000D03*
X132930000Y-77060000D03*
%TD*%
D11*
%TO.C,J7*%
X37200000Y-107100000D03*
D10*
X37200000Y-103500000D03*
%TD*%
%TO.C,C78*%
X118880000Y-114135000D03*
X118880000Y-116635000D03*
%TD*%
D12*
%TO.C,R3*%
X171270000Y-42270000D03*
D13*
X166190000Y-42270000D03*
%TD*%
D14*
%TO.C,SWB1*%
X132830000Y-64960000D03*
D10*
X136430000Y-64960000D03*
%TD*%
D15*
%TO.C,C25*%
X95980000Y-39487401D03*
D16*
X95980000Y-40987401D03*
%TD*%
D17*
%TO.C,U10*%
X130080000Y-72310000D03*
D18*
X130080000Y-69770000D03*
X130080000Y-67230000D03*
X130080000Y-64690000D03*
X130080000Y-62150000D03*
X130080000Y-59610000D03*
X130080000Y-57070000D03*
X130080000Y-54530000D03*
X122460000Y-54530000D03*
X122460000Y-57070000D03*
X122460000Y-59610000D03*
X122460000Y-62150000D03*
X122460000Y-64690000D03*
X122460000Y-67230000D03*
X122460000Y-69770000D03*
X122460000Y-72310000D03*
%TD*%
D15*
%TO.C,C64*%
X141930000Y-100412401D03*
D16*
X141930000Y-101912401D03*
%TD*%
D19*
%TO.C,J9*%
X37200000Y-110560000D03*
D10*
X37200000Y-114160000D03*
%TD*%
D15*
%TO.C,C66*%
X101560000Y-106820000D03*
D16*
X101560000Y-108320000D03*
%TD*%
D12*
%TO.C,R73*%
X102800000Y-113350000D03*
D13*
X107880000Y-113350000D03*
%TD*%
D12*
%TO.C,R70*%
X140315000Y-116385000D03*
D13*
X145395000Y-116385000D03*
%TD*%
D10*
%TO.C,C28*%
X154380000Y-106885000D03*
X154380000Y-104385000D03*
%TD*%
D15*
%TO.C,C45*%
X106020000Y-83620000D03*
D16*
X106020000Y-85120000D03*
%TD*%
D15*
%TO.C,C95*%
X47880000Y-67085000D03*
D16*
X47880000Y-68585000D03*
%TD*%
D12*
%TO.C,R34*%
X156665000Y-101485000D03*
D13*
X161745000Y-101485000D03*
%TD*%
D12*
%TO.C,R75*%
X132490000Y-59660000D03*
D13*
X137570000Y-59660000D03*
%TD*%
D12*
%TO.C,R9*%
X101440000Y-46110000D03*
D13*
X106520000Y-46110000D03*
%TD*%
D12*
%TO.C,R43*%
X115095000Y-83760000D03*
D13*
X110015000Y-83760000D03*
%TD*%
D12*
%TO.C,R14*%
X158700000Y-56260000D03*
D13*
X163780000Y-56260000D03*
%TD*%
D12*
%TO.C,R24*%
X79230000Y-42950000D03*
D13*
X79230000Y-37870000D03*
%TD*%
D10*
%TO.C,C41*%
X119005000Y-88860000D03*
X119005000Y-86360000D03*
%TD*%
%TO.C,C69*%
X135180000Y-57010000D03*
X132680000Y-57010000D03*
%TD*%
D15*
%TO.C,C30*%
X146930000Y-83737401D03*
D16*
X146930000Y-85237401D03*
%TD*%
D12*
%TO.C,R46*%
X115095000Y-88185000D03*
D13*
X110015000Y-88185000D03*
%TD*%
D12*
%TO.C,R57*%
X167150000Y-67380000D03*
D13*
X167150000Y-62300000D03*
%TD*%
D15*
%TO.C,C14*%
X100780000Y-39487401D03*
D16*
X100780000Y-40987401D03*
%TD*%
D10*
%TO.C,C17*%
X118890000Y-43990000D03*
X118890000Y-41490000D03*
%TD*%
D14*
%TO.C,SWC1*%
X132930000Y-87460000D03*
D10*
X136530000Y-87460000D03*
%TD*%
D15*
%TO.C,C27*%
X48180000Y-42760000D03*
D16*
X48180000Y-44260000D03*
%TD*%
D12*
%TO.C,R96*%
X60195000Y-69210000D03*
D13*
X55115000Y-69210000D03*
%TD*%
D15*
%TO.C,C86*%
X106250000Y-106830000D03*
D16*
X106250000Y-108330000D03*
%TD*%
D19*
%TO.C,Out-A*%
X37180000Y-42410000D03*
D10*
X37180000Y-46010000D03*
%TD*%
%TO.C,C77*%
X118930000Y-61885000D03*
X118930000Y-59385000D03*
%TD*%
D12*
%TO.C,R86*%
X115020000Y-108960000D03*
D13*
X109940000Y-108960000D03*
%TD*%
D20*
%TO.C,Q4*%
X132810000Y-117370000D03*
D21*
X134080000Y-117370000D03*
X135350000Y-117370000D03*
%TD*%
D12*
%TO.C,R62*%
X40930000Y-103040000D03*
D13*
X40930000Y-108120000D03*
%TD*%
D10*
%TO.C,C54*%
X43590000Y-100200000D03*
X41090000Y-100200000D03*
%TD*%
D12*
%TO.C,R94*%
X77500000Y-105370000D03*
D13*
X77500000Y-110450000D03*
%TD*%
D12*
%TO.C,R47*%
X107850000Y-92650000D03*
D13*
X102770000Y-92650000D03*
%TD*%
D12*
%TO.C,R44*%
X115095000Y-81560000D03*
D13*
X110015000Y-81560000D03*
%TD*%
D22*
%TO.C,U9*%
X58380000Y-110830000D03*
D23*
X58380000Y-108290000D03*
X58380000Y-105750000D03*
X58380000Y-103210000D03*
X50760000Y-103210000D03*
X50760000Y-105750000D03*
X50760000Y-108290000D03*
X50760000Y-110830000D03*
%TD*%
D10*
%TO.C,C18*%
X118890000Y-39290000D03*
X118890000Y-36790000D03*
%TD*%
D12*
%TO.C,R48*%
X74720000Y-87140000D03*
D13*
X74720000Y-82060000D03*
%TD*%
D12*
%TO.C,R40*%
X132590000Y-82260000D03*
D13*
X137670000Y-82260000D03*
%TD*%
D15*
%TO.C,C50*%
X47530000Y-88060000D03*
D16*
X47530000Y-89560000D03*
%TD*%
D12*
%TO.C,R60*%
X163865000Y-114835000D03*
D13*
X168945000Y-114835000D03*
%TD*%
D12*
%TO.C,R42*%
X115095000Y-90385000D03*
D13*
X110015000Y-90385000D03*
%TD*%
D12*
%TO.C,R45*%
X115095000Y-86010000D03*
D13*
X110015000Y-86010000D03*
%TD*%
D10*
%TO.C,C36*%
X107720000Y-88170000D03*
X105220000Y-88170000D03*
%TD*%
%TO.C,C49*%
X48780000Y-84940000D03*
X48780000Y-82440000D03*
%TD*%
D11*
%TO.C,In-A*%
X37180000Y-39210000D03*
D10*
X37180000Y-35610000D03*
%TD*%
D15*
%TO.C,C13*%
X147030000Y-38110000D03*
D16*
X147030000Y-39610000D03*
%TD*%
D10*
%TO.C,C10*%
X135400000Y-33540000D03*
X132900000Y-33540000D03*
%TD*%
%TO.C,C40*%
X119005000Y-91060000D03*
X119005000Y-93560000D03*
%TD*%
D12*
%TO.C,R88*%
X115020000Y-111160000D03*
D13*
X109940000Y-111160000D03*
%TD*%
D12*
%TO.C,R66*%
X45730000Y-100180000D03*
D13*
X50810000Y-100180000D03*
%TD*%
D10*
%TO.C,C79*%
X118880000Y-111960000D03*
X118880000Y-109460000D03*
%TD*%
D12*
%TO.C,R27*%
X60320000Y-45210000D03*
D13*
X55240000Y-45210000D03*
%TD*%
D12*
%TO.C,R87*%
X115045000Y-66335000D03*
D13*
X109965000Y-66335000D03*
%TD*%
D12*
%TO.C,R1*%
X171270000Y-40100000D03*
D13*
X166190000Y-40100000D03*
%TD*%
D15*
%TO.C,C35*%
X101210000Y-83710000D03*
D16*
X101210000Y-85210000D03*
%TD*%
D12*
%TO.C,R32*%
X163890000Y-101510000D03*
D13*
X168970000Y-101510000D03*
%TD*%
D15*
%TO.C,C88*%
X96900000Y-106850000D03*
D16*
X96900000Y-108350000D03*
%TD*%
D12*
%TO.C,R49*%
X77010000Y-82060000D03*
D13*
X77010000Y-87140000D03*
%TD*%
D10*
%TO.C,C67*%
X107505000Y-66285000D03*
X105005000Y-66285000D03*
%TD*%
D12*
%TO.C,R89*%
X107570000Y-70910000D03*
D13*
X102490000Y-70910000D03*
%TD*%
D12*
%TO.C,R56*%
X41580000Y-86800000D03*
D13*
X41580000Y-91880000D03*
%TD*%
D20*
%TO.C,Q3*%
X133560000Y-71860000D03*
D21*
X134830000Y-71860000D03*
X136100000Y-71860000D03*
%TD*%
D15*
%TO.C,C7*%
X142380000Y-31987400D03*
D16*
X142380000Y-33487400D03*
%TD*%
D14*
%TO.C,SWD1*%
X132780000Y-110260000D03*
D10*
X136380000Y-110260000D03*
%TD*%
D12*
%TO.C,R33*%
X41650000Y-79400000D03*
D13*
X41650000Y-84480000D03*
%TD*%
D15*
%TO.C,C4*%
X153410000Y-38080000D03*
D16*
X153410000Y-39580000D03*
%TD*%
D10*
%TO.C,C26*%
X49355000Y-39810000D03*
X49355000Y-37310000D03*
%TD*%
%TO.C,C61*%
X62430000Y-66935000D03*
X62430000Y-64435000D03*
%TD*%
%TO.C,C84*%
X112580000Y-100135000D03*
X110080000Y-100135000D03*
%TD*%
D15*
%TO.C,C59*%
X146280000Y-54810000D03*
D16*
X146280000Y-56310000D03*
%TD*%
D17*
%TO.C,U2*%
X130180000Y-50270000D03*
D18*
X130180000Y-47730000D03*
X130180000Y-45190000D03*
X130180000Y-42650000D03*
X130180000Y-40110000D03*
X130180000Y-37570000D03*
X130180000Y-35030000D03*
X130180000Y-32490000D03*
X122560000Y-32490000D03*
X122560000Y-35030000D03*
X122560000Y-37570000D03*
X122560000Y-40110000D03*
X122560000Y-42650000D03*
X122560000Y-45190000D03*
X122560000Y-47730000D03*
X122560000Y-50270000D03*
%TD*%
D12*
%TO.C,R30*%
X42205000Y-41895000D03*
D13*
X42205000Y-46975000D03*
%TD*%
D24*
%TO.C,J3*%
X168590000Y-31840000D03*
D10*
X164990000Y-31840000D03*
%TD*%
D12*
%TO.C,R95*%
X106370000Y-57135000D03*
D13*
X101290000Y-57135000D03*
%TD*%
D12*
%TO.C,R64*%
X161695000Y-114835000D03*
D13*
X156615000Y-114835000D03*
%TD*%
D12*
%TO.C,R79*%
X115060000Y-61835000D03*
D13*
X109980000Y-61835000D03*
%TD*%
D10*
%TO.C,C80*%
X118880000Y-107260000D03*
X118880000Y-104760000D03*
%TD*%
D12*
%TO.C,R23*%
X81630000Y-37870000D03*
D13*
X81630000Y-42950000D03*
%TD*%
D12*
%TO.C,R21*%
X106520000Y-48310000D03*
D13*
X101440000Y-48310000D03*
%TD*%
D15*
%TO.C,C2*%
X166470000Y-44870000D03*
D16*
X166470000Y-46370000D03*
%TD*%
D22*
%TO.C,U7*%
X59580000Y-66410000D03*
D23*
X59580000Y-63870000D03*
X59580000Y-61330000D03*
X59580000Y-58790000D03*
X51960000Y-58790000D03*
X51960000Y-61330000D03*
X51960000Y-63870000D03*
X51960000Y-66410000D03*
%TD*%
D12*
%TO.C,R58*%
X169470000Y-69660000D03*
D13*
X164390000Y-69660000D03*
%TD*%
D22*
%TO.C,U1*%
X59730000Y-42385000D03*
D23*
X59730000Y-39845000D03*
X59730000Y-37305000D03*
X59730000Y-34765000D03*
X52110000Y-34765000D03*
X52110000Y-37305000D03*
X52110000Y-39845000D03*
X52110000Y-42385000D03*
%TD*%
D10*
%TO.C,C11*%
X153900000Y-61040000D03*
X153900000Y-58540000D03*
%TD*%
D12*
%TO.C,R7*%
X64880000Y-37945000D03*
D13*
X64880000Y-43025000D03*
%TD*%
D15*
%TO.C,C12*%
X142280000Y-38210000D03*
D16*
X142280000Y-39710000D03*
%TD*%
D15*
%TO.C,C3*%
X153360000Y-31930000D03*
D16*
X153360000Y-33430000D03*
%TD*%
D15*
%TO.C,C58*%
X142005000Y-106560000D03*
D16*
X142005000Y-108060000D03*
%TD*%
D10*
%TO.C,C20*%
X109630000Y-35010000D03*
X112130000Y-35010000D03*
%TD*%
D12*
%TO.C,R61*%
X41830000Y-58095000D03*
D13*
X41830000Y-63175000D03*
%TD*%
D12*
%TO.C,R37*%
X140240000Y-93510000D03*
D13*
X145320000Y-93510000D03*
%TD*%
D15*
%TO.C,C60*%
X146755000Y-100485000D03*
D16*
X146755000Y-101985000D03*
%TD*%
D10*
%TO.C,C81*%
X110080000Y-57210000D03*
X112580000Y-57210000D03*
%TD*%
D12*
%TO.C,R108*%
X40910000Y-110170000D03*
D13*
X40910000Y-115250000D03*
%TD*%
D15*
%TO.C,C63*%
X141680000Y-54810000D03*
D16*
X141680000Y-56310000D03*
%TD*%
D10*
%TO.C,C83*%
X112605000Y-54910000D03*
X110105000Y-54910000D03*
%TD*%
%TO.C,C9*%
X135400000Y-35710000D03*
X132900000Y-35710000D03*
%TD*%
D15*
%TO.C,C56*%
X141680000Y-60710000D03*
D16*
X141680000Y-62210000D03*
%TD*%
D12*
%TO.C,R13*%
X151500000Y-56260000D03*
D13*
X156580000Y-56260000D03*
%TD*%
D10*
%TO.C,C22*%
X96730000Y-48310000D03*
X99230000Y-48310000D03*
%TD*%
%TO.C,C15*%
X106430000Y-43910000D03*
X103930000Y-43910000D03*
%TD*%
%TO.C,C5*%
X44830000Y-31885000D03*
X42330000Y-31885000D03*
%TD*%
D12*
%TO.C,R72*%
X137520000Y-62210000D03*
D13*
X132440000Y-62210000D03*
%TD*%
D12*
%TO.C,R36*%
X64440000Y-82840000D03*
D13*
X64440000Y-87920000D03*
%TD*%
D10*
%TO.C,C44*%
X112580000Y-77085000D03*
X110080000Y-77085000D03*
%TD*%
D17*
%TO.C,D5*%
X140470000Y-113860000D03*
D18*
X148090000Y-113860000D03*
%TD*%
D10*
%TO.C,C91*%
X103880000Y-54835000D03*
X101380000Y-54835000D03*
%TD*%
D19*
%TO.C,J5*%
X37260000Y-87650000D03*
D10*
X37260000Y-91250000D03*
%TD*%
D12*
%TO.C,R81*%
X115020000Y-115550000D03*
D13*
X109940000Y-115550000D03*
%TD*%
D12*
%TO.C,R31*%
X152030000Y-109450000D03*
D13*
X152030000Y-104370000D03*
%TD*%
D17*
%TO.C,U11*%
X130060000Y-117810000D03*
D18*
X130060000Y-115270000D03*
X130060000Y-112730000D03*
X130060000Y-110190000D03*
X130060000Y-107650000D03*
X130060000Y-105110000D03*
X130060000Y-102570000D03*
X130060000Y-100030000D03*
X122440000Y-100030000D03*
X122440000Y-102570000D03*
X122440000Y-105110000D03*
X122440000Y-107650000D03*
X122440000Y-110190000D03*
X122440000Y-112730000D03*
X122440000Y-115270000D03*
X122440000Y-117810000D03*
%TD*%
D10*
%TO.C,C93*%
X49255000Y-63985000D03*
X49255000Y-61485000D03*
%TD*%
D12*
%TO.C,R74*%
X137470000Y-107510000D03*
D13*
X132390000Y-107510000D03*
%TD*%
D12*
%TO.C,R68*%
X63690000Y-106290000D03*
D13*
X63690000Y-111370000D03*
%TD*%
D12*
%TO.C,R100*%
X45660000Y-103180000D03*
D13*
X45660000Y-108260000D03*
%TD*%
D12*
%TO.C,R77*%
X115045000Y-70860000D03*
D13*
X109965000Y-70860000D03*
%TD*%
D10*
%TO.C,C33*%
X62080000Y-87840000D03*
X62080000Y-85340000D03*
%TD*%
%TO.C,C51*%
X169430000Y-64910000D03*
X169430000Y-62410000D03*
%TD*%
D12*
%TO.C,R90*%
X107860000Y-115550000D03*
D13*
X102780000Y-115550000D03*
%TD*%
D12*
%TO.C,R28*%
X47130000Y-34820000D03*
D13*
X47130000Y-39900000D03*
%TD*%
D12*
%TO.C,R78*%
X115095000Y-68585000D03*
D13*
X110015000Y-68585000D03*
%TD*%
D12*
%TO.C,R102*%
X79880000Y-64130000D03*
D13*
X79880000Y-59050000D03*
%TD*%
D12*
%TO.C,R38*%
X102780000Y-90430000D03*
D13*
X107860000Y-90430000D03*
%TD*%
D12*
%TO.C,R16*%
X114620000Y-46110000D03*
D13*
X109540000Y-46110000D03*
%TD*%
D12*
%TO.C,R107*%
X41880000Y-65245000D03*
D13*
X41880000Y-70325000D03*
%TD*%
D10*
%TO.C,C43*%
X110105000Y-79335000D03*
X112605000Y-79335000D03*
%TD*%
D12*
%TO.C,R106*%
X43150000Y-110160000D03*
D13*
X43150000Y-115240000D03*
%TD*%
D12*
%TO.C,R4*%
X164170000Y-42270000D03*
D13*
X159090000Y-42270000D03*
%TD*%
D15*
%TO.C,C65*%
X101305000Y-61435000D03*
D16*
X101305000Y-62935000D03*
%TD*%
D12*
%TO.C,R51*%
X59790000Y-90190000D03*
D13*
X54710000Y-90190000D03*
%TD*%
D20*
%TO.C,Q2*%
X133010000Y-94570000D03*
D21*
X134280000Y-94570000D03*
X135550000Y-94570000D03*
%TD*%
D10*
%TO.C,C29*%
X44420000Y-76920000D03*
X41920000Y-76920000D03*
%TD*%
D15*
%TO.C,C32*%
X146780000Y-77587401D03*
D16*
X146780000Y-79087401D03*
%TD*%
D12*
%TO.C,R26*%
X76830000Y-37870000D03*
D13*
X76830000Y-42950000D03*
%TD*%
D12*
%TO.C,R82*%
X115020000Y-113340000D03*
D13*
X109940000Y-113340000D03*
%TD*%
D12*
%TO.C,R52*%
X46480000Y-79930000D03*
D13*
X46480000Y-85010000D03*
%TD*%
D10*
%TO.C,C73*%
X118880000Y-57010000D03*
X118880000Y-54510000D03*
%TD*%
%TO.C,C24*%
X104230000Y-32810000D03*
X101730000Y-32810000D03*
%TD*%
%TO.C,C39*%
X119005000Y-79460000D03*
X119005000Y-76960000D03*
%TD*%
D12*
%TO.C,R25*%
X74530000Y-42950000D03*
D13*
X74530000Y-37870000D03*
%TD*%
D12*
%TO.C,R71*%
X102515000Y-68585000D03*
D13*
X107595000Y-68585000D03*
%TD*%
D12*
%TO.C,R10*%
X132810000Y-37870000D03*
D13*
X137890000Y-37870000D03*
%TD*%
D15*
%TO.C,C46*%
X96530000Y-83740000D03*
D16*
X96530000Y-85240000D03*
%TD*%
D12*
%TO.C,R8*%
X141150000Y-47810000D03*
D13*
X146230000Y-47810000D03*
%TD*%
D12*
%TO.C,R84*%
X115045000Y-104585000D03*
D13*
X109965000Y-104585000D03*
%TD*%
D10*
%TO.C,C42*%
X119005000Y-84135000D03*
X119005000Y-81635000D03*
%TD*%
%TO.C,C74*%
X118905000Y-102585000D03*
X118905000Y-100085000D03*
%TD*%
D12*
%TO.C,R53*%
X81590000Y-82040000D03*
D13*
X81590000Y-87120000D03*
%TD*%
D10*
%TO.C,C94*%
X48030000Y-108190000D03*
X48030000Y-105690000D03*
%TD*%
D11*
%TO.C,J6*%
X37250000Y-61780000D03*
D10*
X37250000Y-58180000D03*
%TD*%
D15*
%TO.C,C55*%
X146280000Y-60660000D03*
D16*
X146280000Y-62160000D03*
%TD*%
D12*
%TO.C,R19*%
X114620000Y-41710000D03*
D13*
X109540000Y-41710000D03*
%TD*%
D11*
%TO.C,J4*%
X37200000Y-84070000D03*
D10*
X37200000Y-80470000D03*
%TD*%
%TO.C,C89*%
X97805000Y-70935000D03*
X100305000Y-70935000D03*
%TD*%
D12*
%TO.C,R39*%
X137670000Y-84810000D03*
D13*
X132590000Y-84810000D03*
%TD*%
D12*
%TO.C,R15*%
X114620000Y-48310000D03*
D13*
X109540000Y-48310000D03*
%TD*%
D14*
%TO.C,SWA1*%
X133170000Y-42520000D03*
D10*
X136770000Y-42520000D03*
%TD*%
D12*
%TO.C,R65*%
X46915000Y-55860000D03*
D13*
X51995000Y-55860000D03*
%TD*%
D12*
%TO.C,R83*%
X115020000Y-106785000D03*
D13*
X109940000Y-106785000D03*
%TD*%
D12*
%TO.C,R6*%
X47015000Y-31885000D03*
D13*
X52095000Y-31885000D03*
%TD*%
D12*
%TO.C,R54*%
X79270000Y-87130000D03*
D13*
X79270000Y-82050000D03*
%TD*%
D15*
%TO.C,C85*%
X106055000Y-61435000D03*
D16*
X106055000Y-62935000D03*
%TD*%
D15*
%TO.C,C34*%
X142080000Y-77560000D03*
D16*
X142080000Y-79060000D03*
%TD*%
D12*
%TO.C,R20*%
X114620000Y-43910000D03*
D13*
X109540000Y-43910000D03*
%TD*%
D12*
%TO.C,R41*%
X115080000Y-92580000D03*
D13*
X110000000Y-92580000D03*
%TD*%
D17*
%TO.C,D4*%
X141160000Y-68210000D03*
D18*
X148780000Y-68210000D03*
%TD*%
D10*
%TO.C,C75*%
X118980000Y-68885000D03*
X118980000Y-71385000D03*
%TD*%
%TO.C,C16*%
X118890000Y-46190000D03*
X118890000Y-48690000D03*
%TD*%
%TO.C,C76*%
X118930000Y-66635000D03*
X118930000Y-64135000D03*
%TD*%
D17*
%TO.C,D3*%
X141220000Y-45310000D03*
D18*
X148840000Y-45310000D03*
%TD*%
D12*
%TO.C,R67*%
X64730000Y-61970000D03*
D13*
X64730000Y-67050000D03*
%TD*%
D15*
%TO.C,C57*%
X146955000Y-106860000D03*
D16*
X146955000Y-108360000D03*
%TD*%
D22*
%TO.C,U4*%
X156680000Y-59160000D03*
D23*
X156680000Y-61700000D03*
X156680000Y-64240000D03*
X156680000Y-66780000D03*
X164300000Y-66780000D03*
X164300000Y-64240000D03*
X164300000Y-61700000D03*
X164300000Y-59160000D03*
%TD*%
D12*
%TO.C,R50*%
X106340000Y-79440000D03*
D13*
X101260000Y-79440000D03*
%TD*%
D22*
%TO.C,U8*%
X157180000Y-104410000D03*
D23*
X157180000Y-106950000D03*
X157180000Y-109490000D03*
X157180000Y-112030000D03*
X164800000Y-112030000D03*
X164800000Y-109490000D03*
X164800000Y-106950000D03*
X164800000Y-104410000D03*
%TD*%
D15*
%TO.C,C8*%
X147030000Y-31960000D03*
D16*
X147030000Y-33460000D03*
%TD*%
D12*
%TO.C,R92*%
X77355000Y-59095000D03*
D13*
X77355000Y-64175000D03*
%TD*%
D10*
%TO.C,C37*%
X135430000Y-79610000D03*
X132930000Y-79610000D03*
%TD*%
D15*
%TO.C,C31*%
X142180000Y-83837401D03*
D16*
X142180000Y-85337401D03*
%TD*%
D12*
%TO.C,R55*%
X43880000Y-86830000D03*
D13*
X43880000Y-91910000D03*
%TD*%
D25*
%TO.C,D1*%
X169940000Y-37202599D03*
D26*
X159780000Y-37202599D03*
%TD*%
D12*
%TO.C,R17*%
X114620000Y-37310000D03*
D13*
X109540000Y-37310000D03*
%TD*%
D12*
%TO.C,R103*%
X82040000Y-105310000D03*
D13*
X82040000Y-110390000D03*
%TD*%
D12*
%TO.C,R97*%
X106600000Y-102400000D03*
D13*
X101520000Y-102400000D03*
%TD*%
D12*
%TO.C,R98*%
X59120000Y-113780000D03*
D13*
X54040000Y-113780000D03*
%TD*%
D10*
%TO.C,C47*%
X98150000Y-92680000D03*
X100650000Y-92680000D03*
%TD*%
%TO.C,C23*%
X112130000Y-32710000D03*
X109630000Y-32710000D03*
%TD*%
D20*
%TO.C,Q1*%
X132890000Y-49160000D03*
D21*
X134160000Y-49160000D03*
X135430000Y-49160000D03*
%TD*%
D15*
%TO.C,C96*%
X46680000Y-111450000D03*
D16*
X46680000Y-112950000D03*
%TD*%
D12*
%TO.C,R59*%
X167780000Y-112675000D03*
D13*
X167780000Y-107595000D03*
%TD*%
D12*
%TO.C,R2*%
X159090000Y-40100000D03*
D13*
X164170000Y-40100000D03*
%TD*%
D12*
%TO.C,R104*%
X79790000Y-110420000D03*
D13*
X79790000Y-105340000D03*
%TD*%
D12*
%TO.C,R22*%
X106720000Y-35210000D03*
D13*
X101640000Y-35210000D03*
%TD*%
D12*
%TO.C,R99*%
X46980000Y-58995000D03*
D13*
X46980000Y-64075000D03*
%TD*%
D10*
%TO.C,C53*%
X44605000Y-55935000D03*
X42105000Y-55935000D03*
%TD*%
%TO.C,C6*%
X62530000Y-42935000D03*
X62530000Y-40435000D03*
%TD*%
D12*
%TO.C,R85*%
X115045000Y-64035000D03*
D13*
X109965000Y-64035000D03*
%TD*%
D15*
%TO.C,C21*%
X105580000Y-39487401D03*
D16*
X105580000Y-40987401D03*
%TD*%
D12*
%TO.C,R76*%
X132390000Y-105160000D03*
D13*
X137470000Y-105160000D03*
%TD*%
D17*
%TO.C,D2*%
X140370000Y-90860000D03*
D18*
X147990000Y-90860000D03*
%TD*%
D17*
%TO.C,U6*%
X130080000Y-95010000D03*
D18*
X130080000Y-92470000D03*
X130080000Y-89930000D03*
X130080000Y-87390000D03*
X130080000Y-84850000D03*
X130080000Y-82310000D03*
X130080000Y-79770000D03*
X130080000Y-77230000D03*
X122460000Y-77230000D03*
X122460000Y-79770000D03*
X122460000Y-82310000D03*
X122460000Y-84850000D03*
X122460000Y-87390000D03*
X122460000Y-89930000D03*
X122460000Y-92470000D03*
X122460000Y-95010000D03*
%TD*%
D12*
%TO.C,R5*%
X42180000Y-34645000D03*
D13*
X42180000Y-39725000D03*
%TD*%
D12*
%TO.C,R105*%
X44255000Y-65295000D03*
D13*
X44255000Y-70375000D03*
%TD*%
D12*
%TO.C,R11*%
X137890000Y-40040000D03*
D13*
X132810000Y-40040000D03*
%TD*%
D12*
%TO.C,R101*%
X82305000Y-59120000D03*
D13*
X82305000Y-64200000D03*
%TD*%
D10*
%TO.C,C72*%
X134980000Y-99960000D03*
X132480000Y-99960000D03*
%TD*%
%TO.C,C82*%
X110080000Y-102310000D03*
X112580000Y-102310000D03*
%TD*%
%TO.C,C92*%
X104120000Y-100170000D03*
X101620000Y-100170000D03*
%TD*%
D22*
%TO.C,U5*%
X59230000Y-87360000D03*
D23*
X59230000Y-84820000D03*
X59230000Y-82280000D03*
X59230000Y-79740000D03*
X51610000Y-79740000D03*
X51610000Y-82280000D03*
X51610000Y-84820000D03*
X51610000Y-87360000D03*
%TD*%
D12*
%TO.C,R63*%
X161210000Y-69610000D03*
D13*
X156130000Y-69610000D03*
%TD*%
D12*
%TO.C,R91*%
X74755000Y-64240000D03*
D13*
X74755000Y-59160000D03*
%TD*%
D10*
%TO.C,C68*%
X107750000Y-111130000D03*
X105250000Y-111130000D03*
%TD*%
D19*
%TO.C,J8*%
X37200000Y-65190000D03*
D10*
X37200000Y-68790000D03*
%TD*%
%TO.C,C71*%
X135210000Y-54480000D03*
X132710000Y-54480000D03*
%TD*%
%TO.C,C70*%
X134980000Y-102510000D03*
X132480000Y-102510000D03*
%TD*%
D12*
%TO.C,R93*%
X75210000Y-110450000D03*
D13*
X75210000Y-105370000D03*
%TD*%
D12*
%TO.C,R35*%
X46560000Y-76900000D03*
D13*
X51640000Y-76900000D03*
%TD*%
D10*
%TO.C,C1*%
X156940000Y-40100000D03*
X156940000Y-37600000D03*
%TD*%
D15*
%TO.C,C87*%
X96580000Y-61410000D03*
D16*
X96580000Y-62910000D03*
%TD*%
D12*
%TO.C,R80*%
X115020000Y-59535000D03*
D13*
X109940000Y-59535000D03*
%TD*%
D12*
%TO.C,R69*%
X141090000Y-70660000D03*
D13*
X146170000Y-70660000D03*
%TD*%
D12*
%TO.C,R12*%
X151600000Y-63520000D03*
D13*
X151600000Y-58440000D03*
%TD*%
D12*
%TO.C,R29*%
X44530000Y-41895000D03*
D13*
X44530000Y-46975000D03*
%TD*%
D12*
%TO.C,R18*%
X114620000Y-39510000D03*
D13*
X109540000Y-39510000D03*
%TD*%
D10*
%TO.C,C62*%
X61320000Y-111300000D03*
X61320000Y-108800000D03*
%TD*%
%TO.C,C19*%
X118890000Y-34580000D03*
X118890000Y-32080000D03*
%TD*%
%TO.C,C52*%
X170105000Y-110185000D03*
X170105000Y-107685000D03*
%TD*%
D20*
%TO.C,U3*%
X159880000Y-32420000D03*
D21*
X158610000Y-32420000D03*
X157340000Y-32420000D03*
%TD*%
D10*
%TO.C,C48*%
X103870000Y-77200000D03*
X101370000Y-77200000D03*
%TD*%
D27*
%TO.C,SpeedD1*%
X159330000Y-119560000D03*
X164330000Y-119560000D03*
X169330000Y-119560000D03*
%TD*%
%TO.C,DelayC1*%
X108830000Y-96810000D03*
X113830000Y-96810000D03*
X118830000Y-96810000D03*
%TD*%
%TO.C,FB-CD1*%
X56330000Y-119560000D03*
X61330000Y-119560000D03*
X66330000Y-119560000D03*
%TD*%
%TO.C,SpeedB1*%
X159330000Y-74060000D03*
X164330000Y-74060000D03*
X169330000Y-74060000D03*
%TD*%
%TO.C,DelayD1*%
X108830000Y-119560000D03*
X113830000Y-119560000D03*
X118830000Y-119560000D03*
%TD*%
%TO.C,FB-BD1*%
X73830000Y-119560000D03*
X78830000Y-119560000D03*
X83830000Y-119560000D03*
%TD*%
%TO.C,FB-DC1*%
X38830000Y-96810000D03*
X43830000Y-96810000D03*
X48830000Y-96810000D03*
%TD*%
%TO.C,FB-AD1*%
X91330000Y-119560000D03*
X96330000Y-119560000D03*
X101330000Y-119560000D03*
%TD*%
%TO.C,SpeedA1*%
X159330000Y-51310000D03*
X164330000Y-51310000D03*
X169330000Y-51310000D03*
%TD*%
%TO.C,FB-BB1*%
X73830000Y-74060000D03*
X78830000Y-74060000D03*
X83830000Y-74060000D03*
%TD*%
%TO.C,MixD1*%
X38830000Y-142310000D03*
X43830000Y-142310000D03*
X48830000Y-142310000D03*
%TD*%
%TO.C,FB-CC1*%
X56330000Y-96810000D03*
X61330000Y-96810000D03*
X66330000Y-96810000D03*
%TD*%
%TO.C,FB-AB1*%
X91330000Y-74060000D03*
X96330000Y-74060000D03*
X101330000Y-74060000D03*
%TD*%
%TO.C,DepthA1*%
X141830000Y-51310000D03*
X146830000Y-51310000D03*
X151830000Y-51310000D03*
%TD*%
%TO.C,FB-CB1*%
X56330000Y-74060000D03*
X61330000Y-74060000D03*
X66330000Y-74060000D03*
%TD*%
%TO.C,FB-DD1*%
X38830000Y-119560000D03*
X43830000Y-119560000D03*
X48830000Y-119560000D03*
%TD*%
%TO.C,MixA1*%
X91330000Y-142310000D03*
X96330000Y-142310000D03*
X101330000Y-142310000D03*
%TD*%
%TO.C,FB-CA1*%
X56330000Y-51310000D03*
X61330000Y-51310000D03*
X66330000Y-51310000D03*
%TD*%
%TO.C,FB-AC1*%
X91330000Y-96810000D03*
X96330000Y-96810000D03*
X101330000Y-96810000D03*
%TD*%
%TO.C,DelayA1*%
X108830000Y-51310000D03*
X113830000Y-51310000D03*
X118830000Y-51310000D03*
%TD*%
%TO.C,FB-DB1*%
X38830000Y-74060000D03*
X43830000Y-74060000D03*
X48830000Y-74060000D03*
%TD*%
%TO.C,MixC1*%
X56330000Y-142310000D03*
X61330000Y-142310000D03*
X66330000Y-142310000D03*
%TD*%
%TO.C,FB-AA1*%
X91330000Y-51310000D03*
X96330000Y-51310000D03*
X101330000Y-51310000D03*
%TD*%
%TO.C,FB-BA1*%
X73830000Y-51310000D03*
X78830000Y-51310000D03*
X83830000Y-51310000D03*
%TD*%
%TO.C,DepthB1*%
X141830000Y-74060000D03*
X146830000Y-74060000D03*
X151830000Y-74060000D03*
%TD*%
%TO.C,SpeedC1*%
X159330000Y-96810000D03*
X164330000Y-96810000D03*
X169330000Y-96810000D03*
%TD*%
%TO.C,DepthC1*%
X141830000Y-96810000D03*
X146830000Y-96810000D03*
X151830000Y-96810000D03*
%TD*%
%TO.C,FB-DA1*%
X38830000Y-51310000D03*
X43830000Y-51310000D03*
X48830000Y-51310000D03*
%TD*%
%TO.C,DelayB1*%
X108830000Y-74060000D03*
X113830000Y-74060000D03*
X118830000Y-74060000D03*
%TD*%
%TO.C,MixB1*%
X73830000Y-142310000D03*
X78830000Y-142310000D03*
X83830000Y-142310000D03*
%TD*%
%TO.C,DepthD1*%
X141830000Y-119560000D03*
X146830000Y-119560000D03*
X151830000Y-119560000D03*
%TD*%
%TO.C,FB-BC1*%
X73830000Y-96810000D03*
X78830000Y-96810000D03*
X83830000Y-96810000D03*
%TD*%
M02*
