M48
; DRILL file {KiCad 8.0.1} date 2024-03-25T18:19:22-0700
; FORMAT={-:-/ absolute / inch / decimal}
; #@! TF.CreationDate,2024-03-25T18:19:22-07:00
; #@! TF.GenerationSoftware,Kicad,Pcbnew,8.0.1
; #@! TF.FileFunction,Plated,1,2,PTH
FMAT,2
INCH
; #@! TA.AperFunction,Plated,PTH,ViaDrill
T1C0.0118
; #@! TA.AperFunction,Plated,PTH,ComponentDrill
T2C0.0236
; #@! TA.AperFunction,Plated,PTH,ComponentDrill
T3C0.0276
; #@! TA.AperFunction,Plated,PTH,ComponentDrill
T4C0.0295
; #@! TA.AperFunction,Plated,PTH,ComponentDrill
T5C0.0315
; #@! TA.AperFunction,Plated,PTH,ComponentDrill
T6C0.0433
; #@! TA.AperFunction,Plated,PTH,ComponentDrill
T7C0.0512
%
G90
G05
T1
X1.9681Y-4.7996
X2.05Y-4.6256
X2.1126Y-4.0276
X2.1354Y-3.1091
X2.1713Y-2.2516
X2.2961Y-5.5213
X2.6929Y-5.4642
X2.7252Y-3.5488
X2.7708Y-3.5366
X3.1823Y-3.3177
X3.2291Y-4.2272
X3.242Y-2.4165
X3.3677Y-5.5213
X3.3996Y-2.613
X3.4183Y-5.4305
X3.4406Y-2.6122
X3.4748Y-5.5213
X6.3024Y-1.9406
T2
X1.4638Y-1.402
X1.4638Y-1.5437
X1.4638Y-1.6697
X1.4638Y-1.8114
X1.4646Y-2.5665
X1.4646Y-2.7083
X1.4646Y-3.1681
X1.4646Y-3.3098
X1.4646Y-4.0748
X1.4646Y-4.2165
X1.4646Y-4.3528
X1.4646Y-4.4945
X1.4665Y-2.2906
X1.4665Y-2.4323
X1.4669Y-3.4508
X1.4669Y-3.5925
X1.8378Y-4.3878
X1.8378Y-4.4469
X1.8713Y-3.4669
X1.8713Y-3.526
X1.885Y-2.6411
X1.885Y-2.7002
X1.8969Y-1.6835
X1.8969Y-1.7425
X3.7787Y-1.5546
X3.7787Y-1.6137
X3.8004Y-3.2969
X3.8004Y-3.3559
X3.8024Y-2.4177
X3.8024Y-2.4768
X3.815Y-4.2067
X3.815Y-4.2657
X3.9677Y-1.5546
X3.9677Y-1.6137
X3.9846Y-3.2957
X3.9846Y-3.3547
X3.9884Y-2.4187
X3.9884Y-2.4778
X3.9984Y-4.2055
X3.9984Y-4.2646
X4.1567Y-1.5546
X4.1567Y-1.6137
X4.174Y-3.2921
X4.174Y-3.3512
X4.1754Y-2.4187
X4.1754Y-2.4778
X4.1831Y-4.2059
X4.1831Y-4.265
X5.2276Y-4.3409
X5.2295Y-2.5575
X5.2335Y-3.4433
X5.2429Y-1.674
X5.3693Y-4.3409
X5.3713Y-2.5575
X5.3752Y-3.4433
X5.3846Y-1.674
X5.578Y-2.1579
X5.578Y-2.2169
X5.578Y-2.3902
X5.578Y-2.4492
X5.5878Y-3.9532
X5.5878Y-4.0123
X5.5907Y-4.1953
X5.5907Y-4.2543
X5.5937Y-3.0535
X5.5937Y-3.1126
X5.5976Y-3.3007
X5.5976Y-3.3597
X5.6016Y-1.5043
X5.6016Y-1.5634
X5.6055Y-1.2593
X5.6055Y-1.3184
X5.7591Y-2.1579
X5.7591Y-2.2169
X5.7591Y-2.3882
X5.7591Y-2.4472
X5.7778Y-3.9561
X5.7778Y-4.0152
X5.7787Y-3.0546
X5.7787Y-3.1137
X5.7846Y-3.2967
X5.7846Y-3.3558
X5.7856Y-4.2071
X5.7856Y-4.2661
X5.7886Y-1.2583
X5.7886Y-1.3173
X5.7886Y-1.5004
X5.7886Y-1.5594
X6.0378Y-1.2571
X6.0378Y-1.3161
X6.0398Y-1.4992
X6.0398Y-1.5583
X6.4957Y-1.2535
X6.5539Y-1.7665
X6.5539Y-1.8256
X6.6374Y-1.2535
T3
X1.6106Y-4.3374
X1.6106Y-4.5374
X1.6114Y-4.0567
X1.6114Y-4.2567
X1.637Y-3.4173
X1.637Y-3.6173
X1.6398Y-3.126
X1.6398Y-3.326
X1.6469Y-2.2872
X1.6469Y-2.4872
X1.6488Y-2.5687
X1.6488Y-2.7687
X1.6606Y-1.364
X1.6606Y-1.564
X1.6616Y-1.6494
X1.6616Y-1.8494
X1.6988Y-4.337
X1.6988Y-4.537
X1.7276Y-3.4185
X1.7276Y-3.6185
X1.7423Y-2.5707
X1.7423Y-2.7707
X1.7531Y-1.6494
X1.7531Y-1.8494
X1.7976Y-4.0622
X1.7976Y-4.2622
X1.8004Y-3.9441
X1.8299Y-3.1469
X1.8299Y-3.3469
X1.8331Y-3.0276
X1.847Y-2.1992
X1.8496Y-2.3226
X1.8496Y-2.5226
X1.851Y-1.2553
X1.8555Y-1.3709
X1.8555Y-1.5709
X2.0004Y-3.9441
X2.0331Y-3.0276
X2.047Y-2.1992
X2.051Y-1.2553
X2.1276Y-4.4795
X2.1539Y-3.5508
X2.1699Y-2.7248
X2.1748Y-1.7799
X2.3276Y-4.4795
X2.3539Y-3.5508
X2.3699Y-2.7248
X2.3748Y-1.7799
X2.5075Y-4.1846
X2.5075Y-4.3846
X2.537Y-3.2614
X2.537Y-3.4614
X2.5484Y-2.4398
X2.5484Y-2.6398
X2.5543Y-1.4939
X2.5543Y-1.6939
X2.9343Y-1.4909
X2.9343Y-1.6909
X2.9417Y-3.2307
X2.9417Y-3.4307
X2.9431Y-2.3291
X2.9431Y-2.5291
X2.961Y-4.1484
X2.961Y-4.3484
X3.0248Y-1.4909
X3.0248Y-1.6909
X3.0319Y-3.2307
X3.0319Y-3.4307
X3.0455Y-2.3266
X3.0455Y-2.5266
X3.0512Y-4.1484
X3.0512Y-4.3484
X3.1193Y-1.4909
X3.1193Y-1.6909
X3.1209Y-3.2303
X3.1209Y-3.4303
X3.1413Y-4.1472
X3.1413Y-4.3472
X3.1449Y-2.3248
X3.1449Y-2.5248
X3.2122Y-3.2299
X3.2122Y-3.4299
X3.2138Y-1.4909
X3.2138Y-1.6909
X3.2299Y-4.1461
X3.2299Y-4.3461
X3.2404Y-2.3276
X3.2404Y-2.5276
X3.9866Y-3.1276
X3.9878Y-2.2494
X3.9937Y-1.8154
X3.9937Y-1.902
X3.9969Y-4.0315
X4.0016Y-1.3862
X4.035Y-2.7917
X4.036Y-2.7002
X4.0461Y-3.6476
X4.0465Y-3.5602
X4.0465Y-4.5492
X4.0472Y-4.4626
X4.1866Y-3.1276
X4.1878Y-2.2494
X4.1937Y-1.8154
X4.1937Y-1.902
X4.1969Y-4.0315
X4.2016Y-1.3862
X4.235Y-2.7917
X4.236Y-2.7002
X4.2461Y-3.6476
X4.2465Y-3.5602
X4.2465Y-4.5492
X4.2472Y-4.4626
X4.3126Y-1.4689
X4.3126Y-1.5555
X4.3126Y-1.6421
X4.3126Y-1.7287
X4.3126Y-1.8154
X4.3126Y-1.902
X4.3283Y-2.3439
X4.3283Y-4.2041
X4.3283Y-4.2898
X4.3283Y-4.3764
X4.3283Y-4.4622
X4.3283Y-4.5492
X4.3293Y-2.5211
X4.3293Y-2.6116
X4.3293Y-2.7898
X4.3293Y-4.1175
X4.3299Y-2.4344
X4.3307Y-3.6449
X4.3313Y-2.7002
X4.3313Y-3.211
X4.3313Y-3.2976
X4.3313Y-3.3862
X4.3313Y-3.4719
X4.3313Y-3.5585
X4.5126Y-1.4689
X4.5126Y-1.5555
X4.5126Y-1.6421
X4.5126Y-1.7287
X4.5126Y-1.8154
X4.5126Y-1.902
X4.5283Y-2.3439
X4.5283Y-4.2041
X4.5283Y-4.2898
X4.5283Y-4.3764
X4.5283Y-4.4622
X4.5283Y-4.5492
X4.5293Y-2.5211
X4.5293Y-2.6116
X4.5293Y-2.7898
X4.5293Y-4.1175
X4.5299Y-2.4344
X4.5307Y-3.6449
X4.5313Y-2.7002
X4.5313Y-3.211
X4.5313Y-3.2976
X4.5313Y-3.3862
X4.5313Y-3.4719
X4.5313Y-3.5585
X5.2122Y-4.1402
X5.2122Y-4.2327
X5.2142Y-2.4492
X5.2161Y-2.3488
X5.2201Y-3.2386
X5.2201Y-3.339
X5.2287Y-1.4909
X5.2287Y-1.5764
X5.4122Y-4.1402
X5.4122Y-4.2327
X5.4142Y-2.4492
X5.4161Y-2.3488
X5.4201Y-3.2386
X5.4201Y-3.339
X5.4287Y-1.4909
X5.4287Y-1.5764
X5.5213Y-3.6815
X5.5242Y-4.5821
X5.5547Y-2.7819
X5.5571Y-1.8823
X5.7213Y-3.6815
X5.7242Y-4.5821
X5.7547Y-2.7819
X5.7571Y-1.8823
X5.9646Y-2.215
X5.9685Y-2.3008
X5.9685Y-2.5008
X5.9854Y-4.1091
X5.9854Y-4.3091
X6.1469Y-2.7406
X6.1646Y-2.215
X6.1659Y-4.5211
X6.1679Y-3.9955
X6.248Y-2.215
X6.2634Y-1.5787
X6.2634Y-1.6642
X6.3469Y-2.7406
X6.3659Y-4.5211
X6.3679Y-3.9955
X6.448Y-2.215
X6.4514Y-4.5211
X6.4524Y-3.9965
X6.4634Y-1.5787
X6.4634Y-1.6642
X6.472Y-2.7425
X6.5429Y-1.5787
X6.5429Y-1.6642
X6.5807Y-2.4528
X6.5807Y-2.6528
X6.6055Y-4.236
X6.6055Y-4.436
X6.6514Y-4.5211
X6.6524Y-3.9965
X6.672Y-2.7425
X6.7429Y-1.5787
X6.7429Y-1.6642
T4
X5.2287Y-4.6209
X5.2319Y-1.9354
X5.2366Y-3.7232
X5.2583Y-2.8291
X5.2787Y-4.6209
X5.2819Y-1.9354
X5.2866Y-3.7232
X5.3083Y-2.8291
X5.3287Y-4.6209
X5.3319Y-1.9354
X5.3366Y-3.7232
X5.3583Y-2.8291
X6.1945Y-1.2764
X6.2445Y-1.2764
X6.2945Y-1.2764
T5
X1.6177Y-3.9449
X1.6504Y-3.0283
X1.6577Y-2.2022
X1.6665Y-1.2553
X1.7161Y-3.9449
X1.7488Y-3.0283
X1.7561Y-2.2022
X1.765Y-1.2553
X1.8909Y-4.161
X1.8909Y-4.2594
X1.9205Y-3.2457
X1.9205Y-3.3441
X1.9392Y-2.4207
X1.9392Y-2.5191
X1.9431Y-1.4689
X1.9431Y-1.5673
X1.9984Y-4.0634
X1.9984Y-4.1634
X1.9984Y-4.2634
X1.9984Y-4.3634
X2.0319Y-3.1394
X2.0319Y-3.2394
X2.0319Y-3.3394
X2.0319Y-3.4394
X2.0457Y-2.3146
X2.0457Y-2.4146
X2.0457Y-2.5146
X2.0457Y-2.6146
X2.0516Y-1.3687
X2.0516Y-1.4687
X2.0516Y-1.5687
X2.0516Y-1.6687
X2.2984Y-4.0634
X2.2984Y-4.1634
X2.2984Y-4.2634
X2.2984Y-4.3634
X2.3319Y-3.1394
X2.3319Y-3.2394
X2.3319Y-3.3394
X2.3319Y-3.4394
X2.3457Y-2.3146
X2.3457Y-2.4146
X2.3457Y-2.5146
X2.3457Y-2.6146
X2.3516Y-1.3687
X2.3516Y-1.4687
X2.3516Y-1.5687
X2.3516Y-1.6687
X2.4142Y-4.2835
X2.4142Y-4.3819
X2.4441Y-3.3598
X2.4441Y-3.4583
X2.4579Y-2.5368
X2.4579Y-2.6352
X2.4618Y-1.5919
X2.4618Y-1.6904
X3.8083Y-1.902
X3.8506Y-2.7927
X3.8638Y-4.5496
X3.8642Y-3.6488
X3.9067Y-1.902
X3.949Y-2.7927
X3.9622Y-4.5496
X3.9626Y-3.6488
X3.9909Y-3.0394
X3.9913Y-2.1589
X4.0008Y-3.9437
X4.0051Y-1.2917
X4.0894Y-3.0394
X4.0898Y-2.1589
X4.0917Y-1.7287
X4.0992Y-3.9437
X4.1035Y-1.2917
X4.1341Y-2.6096
X4.1425Y-3.4713
X4.1437Y-4.3752
X4.1902Y-1.7287
X4.2325Y-2.6096
X4.2409Y-3.4713
X4.2421Y-4.3752
X4.3161Y-1.2878
X4.3161Y-1.3783
X4.3339Y-2.2524
X4.3339Y-3.0348
X4.3339Y-3.9423
X4.3339Y-4.028
X4.3348Y-2.1618
X4.3348Y-3.1234
X4.4146Y-1.2878
X4.4146Y-1.3783
X4.4323Y-2.2524
X4.4323Y-3.0348
X4.4323Y-3.9423
X4.4323Y-4.028
X4.4333Y-2.1618
X4.4333Y-3.1234
X4.6803Y-2.1461
X4.6803Y-2.2445
X4.6803Y-4.1244
X4.6803Y-4.2228
X4.6803Y-4.3094
X4.6803Y-4.4079
X4.6803Y-4.4935
X4.6803Y-4.5919
X4.6807Y-1.263
X4.6807Y-1.3614
X4.6807Y-1.4484
X4.6807Y-1.5469
X4.6807Y-1.6335
X4.6807Y-1.7319
X4.6807Y-1.8185
X4.6807Y-1.9169
X4.6813Y-3.9404
X4.6813Y-4.0388
X4.6823Y-2.338
X4.6823Y-2.4364
X4.6823Y-2.525
X4.6823Y-2.6234
X4.6843Y-2.712
X4.6843Y-2.8104
X4.6852Y-3.0299
X4.6852Y-3.1283
X4.6852Y-3.214
X4.6852Y-3.3124
X4.6852Y-3.4
X4.6852Y-3.4984
X4.6852Y-3.585
X4.6852Y-3.6835
X4.8205Y-3.9382
X4.8205Y-4.0382
X4.8205Y-4.1382
X4.8205Y-4.2382
X4.8205Y-4.3382
X4.8205Y-4.4382
X4.8205Y-4.5382
X4.8205Y-4.6382
X4.8213Y-2.1469
X4.8213Y-2.2469
X4.8213Y-2.3469
X4.8213Y-2.4469
X4.8213Y-2.5469
X4.8213Y-2.6469
X4.8213Y-2.7469
X4.8213Y-2.8469
X4.8213Y-3.0406
X4.8213Y-3.1406
X4.8213Y-3.2406
X4.8213Y-3.3406
X4.8213Y-3.4406
X4.8213Y-3.5406
X4.8213Y-3.6406
X4.8213Y-3.7406
X4.8252Y-1.2791
X4.8252Y-1.3791
X4.8252Y-1.4791
X4.8252Y-1.5791
X4.8252Y-1.6791
X4.8252Y-1.7791
X4.8252Y-1.8791
X4.8252Y-1.9791
X5.1205Y-3.9382
X5.1205Y-4.0382
X5.1205Y-4.1382
X5.1205Y-4.2382
X5.1205Y-4.3382
X5.1205Y-4.4382
X5.1205Y-4.5382
X5.1205Y-4.6382
X5.1213Y-2.1469
X5.1213Y-2.2469
X5.1213Y-2.3469
X5.1213Y-2.4469
X5.1213Y-2.5469
X5.1213Y-2.6469
X5.1213Y-2.7469
X5.1213Y-2.8469
X5.1213Y-3.0406
X5.1213Y-3.1406
X5.1213Y-3.2406
X5.1213Y-3.3406
X5.1213Y-3.4406
X5.1213Y-3.5406
X5.1213Y-3.6406
X5.1213Y-3.7406
X5.1252Y-1.2791
X5.1252Y-1.3791
X5.1252Y-1.4791
X5.1252Y-1.5791
X5.1252Y-1.6791
X5.1252Y-1.7791
X5.1252Y-1.8791
X5.1252Y-1.9791
X5.2157Y-3.9354
X5.2157Y-4.0358
X5.2236Y-2.2445
X5.2248Y-2.1449
X5.2323Y-1.3205
X5.2323Y-1.4059
X5.2335Y-3.0339
X5.2335Y-3.1343
X5.3142Y-3.9354
X5.3142Y-4.0358
X5.322Y-2.2445
X5.3232Y-2.1449
X5.3307Y-1.3205
X5.3307Y-1.4059
X5.3319Y-3.0339
X5.3319Y-3.1343
X5.5264Y-3.5772
X5.5303Y-4.4827
X5.5575Y-2.6854
X5.5598Y-1.7839
X5.8264Y-3.5772
X5.8303Y-4.4827
X5.8575Y-2.6854
X5.8598Y-1.7839
X6.0591Y-2.3047
X6.0591Y-2.4031
X6.078Y-4.1096
X6.078Y-4.2081
X6.1685Y-2.3291
X6.1685Y-2.4291
X6.1685Y-2.5291
X6.1685Y-2.6291
X6.1787Y-1.4803
X6.1787Y-1.5787
X6.1882Y-4.1106
X6.1882Y-4.2106
X6.1882Y-4.3106
X6.1882Y-4.4106
X6.4685Y-2.3291
X6.4685Y-2.4291
X6.4685Y-2.5291
X6.4685Y-2.6291
X6.4882Y-4.1106
X6.4882Y-4.2106
X6.4882Y-4.3106
X6.4882Y-4.4106
X6.6705Y-2.4571
X6.6705Y-2.5555
X6.697Y-4.2396
X6.697Y-4.338
T6
X6.2906Y-1.4647
X6.6906Y-1.4647
T7
X1.5287Y-2.0201
X1.5287Y-2.9157
X1.5287Y-3.8114
X1.5287Y-4.7071
X1.5287Y-5.6028
X1.7256Y-2.0201
X1.7256Y-2.9157
X1.7256Y-3.8114
X1.7256Y-4.7071
X1.7256Y-5.6028
X1.9224Y-2.0201
X1.9224Y-2.9157
X1.9224Y-3.8114
X1.9224Y-4.7071
X1.9224Y-5.6028
X2.2177Y-2.0201
X2.2177Y-2.9157
X2.2177Y-3.8114
X2.2177Y-4.7071
X2.2177Y-5.6028
X2.4146Y-2.0201
X2.4146Y-2.9157
X2.4146Y-3.8114
X2.4146Y-4.7071
X2.4146Y-5.6028
X2.6114Y-2.0201
X2.6114Y-2.9157
X2.6114Y-3.8114
X2.6114Y-4.7071
X2.6114Y-5.6028
X2.9067Y-2.0201
X2.9067Y-2.9157
X2.9067Y-3.8114
X2.9067Y-4.7071
X2.9067Y-5.6028
X3.1035Y-2.0201
X3.1035Y-2.9157
X3.1035Y-3.8114
X3.1035Y-4.7071
X3.1035Y-5.6028
X3.3004Y-2.0201
X3.3004Y-2.9157
X3.3004Y-3.8114
X3.3004Y-4.7071
X3.3004Y-5.6028
X3.5957Y-2.0201
X3.5957Y-2.9157
X3.5957Y-3.8114
X3.5957Y-4.7071
X3.5957Y-5.6028
X3.7925Y-2.0201
X3.7925Y-2.9157
X3.7925Y-3.8114
X3.7925Y-4.7071
X3.7925Y-5.6028
X3.9894Y-2.0201
X3.9894Y-2.9157
X3.9894Y-3.8114
X3.9894Y-4.7071
X3.9894Y-5.6028
X4.2846Y-2.0201
X4.2846Y-2.9157
X4.2846Y-3.8114
X4.2846Y-4.7071
X4.4815Y-2.0201
X4.4815Y-2.9157
X4.4815Y-3.8114
X4.4815Y-4.7071
X4.6783Y-2.0201
X4.6783Y-2.9157
X4.6783Y-3.8114
X4.6783Y-4.7071
X5.5839Y-2.0201
X5.5839Y-2.9157
X5.5839Y-3.8114
X5.5839Y-4.7071
X5.7807Y-2.0201
X5.7807Y-2.9157
X5.7807Y-3.8114
X5.7807Y-4.7071
X5.9776Y-2.0201
X5.9776Y-2.9157
X5.9776Y-3.8114
X5.9776Y-4.7071
X6.2728Y-2.0201
X6.2728Y-2.9157
X6.2728Y-3.8114
X6.2728Y-4.7071
X6.4697Y-2.0201
X6.4697Y-2.9157
X6.4697Y-3.8114
X6.4697Y-4.7071
X6.6665Y-2.0201
X6.6665Y-2.9157
X6.6665Y-3.8114
X6.6665Y-4.7071
M30
