%TF.GenerationSoftware,KiCad,Pcbnew,8.0.1*%
%TF.CreationDate,2024-03-25T17:22:26-07:00*%
%TF.ProjectId,Delay02,44656c61-7930-4322-9e6b-696361645f70,rev?*%
%TF.SameCoordinates,Original*%
%TF.FileFunction,Legend,Bot*%
%TF.FilePolarity,Positive*%
%FSLAX46Y46*%
G04 Gerber Fmt 4.6, Leading zero omitted, Abs format (unit mm)*
G04 Created by KiCad (PCBNEW 8.0.1) date 2024-03-25 17:22:26*
%MOMM*%
%LPD*%
G01*
G04 APERTURE LIST*
%ADD10C,0.150000*%
%ADD11C,0.120000*%
G04 APERTURE END LIST*
D10*
X167353809Y-100417200D02*
X167210952Y-100464819D01*
X167210952Y-100464819D02*
X166972857Y-100464819D01*
X166972857Y-100464819D02*
X166877619Y-100417200D01*
X166877619Y-100417200D02*
X166830000Y-100369580D01*
X166830000Y-100369580D02*
X166782381Y-100274342D01*
X166782381Y-100274342D02*
X166782381Y-100179104D01*
X166782381Y-100179104D02*
X166830000Y-100083866D01*
X166830000Y-100083866D02*
X166877619Y-100036247D01*
X166877619Y-100036247D02*
X166972857Y-99988628D01*
X166972857Y-99988628D02*
X167163333Y-99941009D01*
X167163333Y-99941009D02*
X167258571Y-99893390D01*
X167258571Y-99893390D02*
X167306190Y-99845771D01*
X167306190Y-99845771D02*
X167353809Y-99750533D01*
X167353809Y-99750533D02*
X167353809Y-99655295D01*
X167353809Y-99655295D02*
X167306190Y-99560057D01*
X167306190Y-99560057D02*
X167258571Y-99512438D01*
X167258571Y-99512438D02*
X167163333Y-99464819D01*
X167163333Y-99464819D02*
X166925238Y-99464819D01*
X166925238Y-99464819D02*
X166782381Y-99512438D01*
X166353809Y-99798152D02*
X166353809Y-100798152D01*
X166353809Y-99845771D02*
X166258571Y-99798152D01*
X166258571Y-99798152D02*
X166068095Y-99798152D01*
X166068095Y-99798152D02*
X165972857Y-99845771D01*
X165972857Y-99845771D02*
X165925238Y-99893390D01*
X165925238Y-99893390D02*
X165877619Y-99988628D01*
X165877619Y-99988628D02*
X165877619Y-100274342D01*
X165877619Y-100274342D02*
X165925238Y-100369580D01*
X165925238Y-100369580D02*
X165972857Y-100417200D01*
X165972857Y-100417200D02*
X166068095Y-100464819D01*
X166068095Y-100464819D02*
X166258571Y-100464819D01*
X166258571Y-100464819D02*
X166353809Y-100417200D01*
X165068095Y-100417200D02*
X165163333Y-100464819D01*
X165163333Y-100464819D02*
X165353809Y-100464819D01*
X165353809Y-100464819D02*
X165449047Y-100417200D01*
X165449047Y-100417200D02*
X165496666Y-100321961D01*
X165496666Y-100321961D02*
X165496666Y-99941009D01*
X165496666Y-99941009D02*
X165449047Y-99845771D01*
X165449047Y-99845771D02*
X165353809Y-99798152D01*
X165353809Y-99798152D02*
X165163333Y-99798152D01*
X165163333Y-99798152D02*
X165068095Y-99845771D01*
X165068095Y-99845771D02*
X165020476Y-99941009D01*
X165020476Y-99941009D02*
X165020476Y-100036247D01*
X165020476Y-100036247D02*
X165496666Y-100131485D01*
X164210952Y-100417200D02*
X164306190Y-100464819D01*
X164306190Y-100464819D02*
X164496666Y-100464819D01*
X164496666Y-100464819D02*
X164591904Y-100417200D01*
X164591904Y-100417200D02*
X164639523Y-100321961D01*
X164639523Y-100321961D02*
X164639523Y-99941009D01*
X164639523Y-99941009D02*
X164591904Y-99845771D01*
X164591904Y-99845771D02*
X164496666Y-99798152D01*
X164496666Y-99798152D02*
X164306190Y-99798152D01*
X164306190Y-99798152D02*
X164210952Y-99845771D01*
X164210952Y-99845771D02*
X164163333Y-99941009D01*
X164163333Y-99941009D02*
X164163333Y-100036247D01*
X164163333Y-100036247D02*
X164639523Y-100131485D01*
X163306190Y-100464819D02*
X163306190Y-99464819D01*
X163306190Y-100417200D02*
X163401428Y-100464819D01*
X163401428Y-100464819D02*
X163591904Y-100464819D01*
X163591904Y-100464819D02*
X163687142Y-100417200D01*
X163687142Y-100417200D02*
X163734761Y-100369580D01*
X163734761Y-100369580D02*
X163782380Y-100274342D01*
X163782380Y-100274342D02*
X163782380Y-99988628D01*
X163782380Y-99988628D02*
X163734761Y-99893390D01*
X163734761Y-99893390D02*
X163687142Y-99845771D01*
X163687142Y-99845771D02*
X163591904Y-99798152D01*
X163591904Y-99798152D02*
X163401428Y-99798152D01*
X163401428Y-99798152D02*
X163306190Y-99845771D01*
X162829999Y-100464819D02*
X162829999Y-99464819D01*
X162829999Y-99464819D02*
X162591904Y-99464819D01*
X162591904Y-99464819D02*
X162449047Y-99512438D01*
X162449047Y-99512438D02*
X162353809Y-99607676D01*
X162353809Y-99607676D02*
X162306190Y-99702914D01*
X162306190Y-99702914D02*
X162258571Y-99893390D01*
X162258571Y-99893390D02*
X162258571Y-100036247D01*
X162258571Y-100036247D02*
X162306190Y-100226723D01*
X162306190Y-100226723D02*
X162353809Y-100321961D01*
X162353809Y-100321961D02*
X162449047Y-100417200D01*
X162449047Y-100417200D02*
X162591904Y-100464819D01*
X162591904Y-100464819D02*
X162829999Y-100464819D01*
X161306190Y-100464819D02*
X161877618Y-100464819D01*
X161591904Y-100464819D02*
X161591904Y-99464819D01*
X161591904Y-99464819D02*
X161687142Y-99607676D01*
X161687142Y-99607676D02*
X161782380Y-99702914D01*
X161782380Y-99702914D02*
X161877618Y-99750533D01*
X116591904Y-77714819D02*
X116591904Y-76714819D01*
X116591904Y-76714819D02*
X116353809Y-76714819D01*
X116353809Y-76714819D02*
X116210952Y-76762438D01*
X116210952Y-76762438D02*
X116115714Y-76857676D01*
X116115714Y-76857676D02*
X116068095Y-76952914D01*
X116068095Y-76952914D02*
X116020476Y-77143390D01*
X116020476Y-77143390D02*
X116020476Y-77286247D01*
X116020476Y-77286247D02*
X116068095Y-77476723D01*
X116068095Y-77476723D02*
X116115714Y-77571961D01*
X116115714Y-77571961D02*
X116210952Y-77667200D01*
X116210952Y-77667200D02*
X116353809Y-77714819D01*
X116353809Y-77714819D02*
X116591904Y-77714819D01*
X115210952Y-77667200D02*
X115306190Y-77714819D01*
X115306190Y-77714819D02*
X115496666Y-77714819D01*
X115496666Y-77714819D02*
X115591904Y-77667200D01*
X115591904Y-77667200D02*
X115639523Y-77571961D01*
X115639523Y-77571961D02*
X115639523Y-77191009D01*
X115639523Y-77191009D02*
X115591904Y-77095771D01*
X115591904Y-77095771D02*
X115496666Y-77048152D01*
X115496666Y-77048152D02*
X115306190Y-77048152D01*
X115306190Y-77048152D02*
X115210952Y-77095771D01*
X115210952Y-77095771D02*
X115163333Y-77191009D01*
X115163333Y-77191009D02*
X115163333Y-77286247D01*
X115163333Y-77286247D02*
X115639523Y-77381485D01*
X114591904Y-77714819D02*
X114687142Y-77667200D01*
X114687142Y-77667200D02*
X114734761Y-77571961D01*
X114734761Y-77571961D02*
X114734761Y-76714819D01*
X113782380Y-77714819D02*
X113782380Y-77191009D01*
X113782380Y-77191009D02*
X113829999Y-77095771D01*
X113829999Y-77095771D02*
X113925237Y-77048152D01*
X113925237Y-77048152D02*
X114115713Y-77048152D01*
X114115713Y-77048152D02*
X114210951Y-77095771D01*
X113782380Y-77667200D02*
X113877618Y-77714819D01*
X113877618Y-77714819D02*
X114115713Y-77714819D01*
X114115713Y-77714819D02*
X114210951Y-77667200D01*
X114210951Y-77667200D02*
X114258570Y-77571961D01*
X114258570Y-77571961D02*
X114258570Y-77476723D01*
X114258570Y-77476723D02*
X114210951Y-77381485D01*
X114210951Y-77381485D02*
X114115713Y-77333866D01*
X114115713Y-77333866D02*
X113877618Y-77333866D01*
X113877618Y-77333866D02*
X113782380Y-77286247D01*
X113401427Y-77048152D02*
X113163332Y-77714819D01*
X112925237Y-77048152D02*
X113163332Y-77714819D01*
X113163332Y-77714819D02*
X113258570Y-77952914D01*
X113258570Y-77952914D02*
X113306189Y-78000533D01*
X113306189Y-78000533D02*
X113401427Y-78048152D01*
X111972856Y-77619580D02*
X112020475Y-77667200D01*
X112020475Y-77667200D02*
X112163332Y-77714819D01*
X112163332Y-77714819D02*
X112258570Y-77714819D01*
X112258570Y-77714819D02*
X112401427Y-77667200D01*
X112401427Y-77667200D02*
X112496665Y-77571961D01*
X112496665Y-77571961D02*
X112544284Y-77476723D01*
X112544284Y-77476723D02*
X112591903Y-77286247D01*
X112591903Y-77286247D02*
X112591903Y-77143390D01*
X112591903Y-77143390D02*
X112544284Y-76952914D01*
X112544284Y-76952914D02*
X112496665Y-76857676D01*
X112496665Y-76857676D02*
X112401427Y-76762438D01*
X112401427Y-76762438D02*
X112258570Y-76714819D01*
X112258570Y-76714819D02*
X112163332Y-76714819D01*
X112163332Y-76714819D02*
X112020475Y-76762438D01*
X112020475Y-76762438D02*
X111972856Y-76810057D01*
X111020475Y-77714819D02*
X111591903Y-77714819D01*
X111306189Y-77714819D02*
X111306189Y-76714819D01*
X111306189Y-76714819D02*
X111401427Y-76857676D01*
X111401427Y-76857676D02*
X111496665Y-76952914D01*
X111496665Y-76952914D02*
X111591903Y-77000533D01*
X63782380Y-99941009D02*
X64115713Y-99941009D01*
X64115713Y-100464819D02*
X64115713Y-99464819D01*
X64115713Y-99464819D02*
X63639523Y-99464819D01*
X62925237Y-99941009D02*
X62782380Y-99988628D01*
X62782380Y-99988628D02*
X62734761Y-100036247D01*
X62734761Y-100036247D02*
X62687142Y-100131485D01*
X62687142Y-100131485D02*
X62687142Y-100274342D01*
X62687142Y-100274342D02*
X62734761Y-100369580D01*
X62734761Y-100369580D02*
X62782380Y-100417200D01*
X62782380Y-100417200D02*
X62877618Y-100464819D01*
X62877618Y-100464819D02*
X63258570Y-100464819D01*
X63258570Y-100464819D02*
X63258570Y-99464819D01*
X63258570Y-99464819D02*
X62925237Y-99464819D01*
X62925237Y-99464819D02*
X62829999Y-99512438D01*
X62829999Y-99512438D02*
X62782380Y-99560057D01*
X62782380Y-99560057D02*
X62734761Y-99655295D01*
X62734761Y-99655295D02*
X62734761Y-99750533D01*
X62734761Y-99750533D02*
X62782380Y-99845771D01*
X62782380Y-99845771D02*
X62829999Y-99893390D01*
X62829999Y-99893390D02*
X62925237Y-99941009D01*
X62925237Y-99941009D02*
X63258570Y-99941009D01*
X62258570Y-100083866D02*
X61496666Y-100083866D01*
X60449047Y-100369580D02*
X60496666Y-100417200D01*
X60496666Y-100417200D02*
X60639523Y-100464819D01*
X60639523Y-100464819D02*
X60734761Y-100464819D01*
X60734761Y-100464819D02*
X60877618Y-100417200D01*
X60877618Y-100417200D02*
X60972856Y-100321961D01*
X60972856Y-100321961D02*
X61020475Y-100226723D01*
X61020475Y-100226723D02*
X61068094Y-100036247D01*
X61068094Y-100036247D02*
X61068094Y-99893390D01*
X61068094Y-99893390D02*
X61020475Y-99702914D01*
X61020475Y-99702914D02*
X60972856Y-99607676D01*
X60972856Y-99607676D02*
X60877618Y-99512438D01*
X60877618Y-99512438D02*
X60734761Y-99464819D01*
X60734761Y-99464819D02*
X60639523Y-99464819D01*
X60639523Y-99464819D02*
X60496666Y-99512438D01*
X60496666Y-99512438D02*
X60449047Y-99560057D01*
X60020475Y-100464819D02*
X60020475Y-99464819D01*
X60020475Y-99464819D02*
X59782380Y-99464819D01*
X59782380Y-99464819D02*
X59639523Y-99512438D01*
X59639523Y-99512438D02*
X59544285Y-99607676D01*
X59544285Y-99607676D02*
X59496666Y-99702914D01*
X59496666Y-99702914D02*
X59449047Y-99893390D01*
X59449047Y-99893390D02*
X59449047Y-100036247D01*
X59449047Y-100036247D02*
X59496666Y-100226723D01*
X59496666Y-100226723D02*
X59544285Y-100321961D01*
X59544285Y-100321961D02*
X59639523Y-100417200D01*
X59639523Y-100417200D02*
X59782380Y-100464819D01*
X59782380Y-100464819D02*
X60020475Y-100464819D01*
X58496666Y-100464819D02*
X59068094Y-100464819D01*
X58782380Y-100464819D02*
X58782380Y-99464819D01*
X58782380Y-99464819D02*
X58877618Y-99607676D01*
X58877618Y-99607676D02*
X58972856Y-99702914D01*
X58972856Y-99702914D02*
X59068094Y-99750533D01*
X167353809Y-54917200D02*
X167210952Y-54964819D01*
X167210952Y-54964819D02*
X166972857Y-54964819D01*
X166972857Y-54964819D02*
X166877619Y-54917200D01*
X166877619Y-54917200D02*
X166830000Y-54869580D01*
X166830000Y-54869580D02*
X166782381Y-54774342D01*
X166782381Y-54774342D02*
X166782381Y-54679104D01*
X166782381Y-54679104D02*
X166830000Y-54583866D01*
X166830000Y-54583866D02*
X166877619Y-54536247D01*
X166877619Y-54536247D02*
X166972857Y-54488628D01*
X166972857Y-54488628D02*
X167163333Y-54441009D01*
X167163333Y-54441009D02*
X167258571Y-54393390D01*
X167258571Y-54393390D02*
X167306190Y-54345771D01*
X167306190Y-54345771D02*
X167353809Y-54250533D01*
X167353809Y-54250533D02*
X167353809Y-54155295D01*
X167353809Y-54155295D02*
X167306190Y-54060057D01*
X167306190Y-54060057D02*
X167258571Y-54012438D01*
X167258571Y-54012438D02*
X167163333Y-53964819D01*
X167163333Y-53964819D02*
X166925238Y-53964819D01*
X166925238Y-53964819D02*
X166782381Y-54012438D01*
X166353809Y-54298152D02*
X166353809Y-55298152D01*
X166353809Y-54345771D02*
X166258571Y-54298152D01*
X166258571Y-54298152D02*
X166068095Y-54298152D01*
X166068095Y-54298152D02*
X165972857Y-54345771D01*
X165972857Y-54345771D02*
X165925238Y-54393390D01*
X165925238Y-54393390D02*
X165877619Y-54488628D01*
X165877619Y-54488628D02*
X165877619Y-54774342D01*
X165877619Y-54774342D02*
X165925238Y-54869580D01*
X165925238Y-54869580D02*
X165972857Y-54917200D01*
X165972857Y-54917200D02*
X166068095Y-54964819D01*
X166068095Y-54964819D02*
X166258571Y-54964819D01*
X166258571Y-54964819D02*
X166353809Y-54917200D01*
X165068095Y-54917200D02*
X165163333Y-54964819D01*
X165163333Y-54964819D02*
X165353809Y-54964819D01*
X165353809Y-54964819D02*
X165449047Y-54917200D01*
X165449047Y-54917200D02*
X165496666Y-54821961D01*
X165496666Y-54821961D02*
X165496666Y-54441009D01*
X165496666Y-54441009D02*
X165449047Y-54345771D01*
X165449047Y-54345771D02*
X165353809Y-54298152D01*
X165353809Y-54298152D02*
X165163333Y-54298152D01*
X165163333Y-54298152D02*
X165068095Y-54345771D01*
X165068095Y-54345771D02*
X165020476Y-54441009D01*
X165020476Y-54441009D02*
X165020476Y-54536247D01*
X165020476Y-54536247D02*
X165496666Y-54631485D01*
X164210952Y-54917200D02*
X164306190Y-54964819D01*
X164306190Y-54964819D02*
X164496666Y-54964819D01*
X164496666Y-54964819D02*
X164591904Y-54917200D01*
X164591904Y-54917200D02*
X164639523Y-54821961D01*
X164639523Y-54821961D02*
X164639523Y-54441009D01*
X164639523Y-54441009D02*
X164591904Y-54345771D01*
X164591904Y-54345771D02*
X164496666Y-54298152D01*
X164496666Y-54298152D02*
X164306190Y-54298152D01*
X164306190Y-54298152D02*
X164210952Y-54345771D01*
X164210952Y-54345771D02*
X164163333Y-54441009D01*
X164163333Y-54441009D02*
X164163333Y-54536247D01*
X164163333Y-54536247D02*
X164639523Y-54631485D01*
X163306190Y-54964819D02*
X163306190Y-53964819D01*
X163306190Y-54917200D02*
X163401428Y-54964819D01*
X163401428Y-54964819D02*
X163591904Y-54964819D01*
X163591904Y-54964819D02*
X163687142Y-54917200D01*
X163687142Y-54917200D02*
X163734761Y-54869580D01*
X163734761Y-54869580D02*
X163782380Y-54774342D01*
X163782380Y-54774342D02*
X163782380Y-54488628D01*
X163782380Y-54488628D02*
X163734761Y-54393390D01*
X163734761Y-54393390D02*
X163687142Y-54345771D01*
X163687142Y-54345771D02*
X163591904Y-54298152D01*
X163591904Y-54298152D02*
X163401428Y-54298152D01*
X163401428Y-54298152D02*
X163306190Y-54345771D01*
X162496666Y-54441009D02*
X162353809Y-54488628D01*
X162353809Y-54488628D02*
X162306190Y-54536247D01*
X162306190Y-54536247D02*
X162258571Y-54631485D01*
X162258571Y-54631485D02*
X162258571Y-54774342D01*
X162258571Y-54774342D02*
X162306190Y-54869580D01*
X162306190Y-54869580D02*
X162353809Y-54917200D01*
X162353809Y-54917200D02*
X162449047Y-54964819D01*
X162449047Y-54964819D02*
X162829999Y-54964819D01*
X162829999Y-54964819D02*
X162829999Y-53964819D01*
X162829999Y-53964819D02*
X162496666Y-53964819D01*
X162496666Y-53964819D02*
X162401428Y-54012438D01*
X162401428Y-54012438D02*
X162353809Y-54060057D01*
X162353809Y-54060057D02*
X162306190Y-54155295D01*
X162306190Y-54155295D02*
X162306190Y-54250533D01*
X162306190Y-54250533D02*
X162353809Y-54345771D01*
X162353809Y-54345771D02*
X162401428Y-54393390D01*
X162401428Y-54393390D02*
X162496666Y-54441009D01*
X162496666Y-54441009D02*
X162829999Y-54441009D01*
X161306190Y-54964819D02*
X161877618Y-54964819D01*
X161591904Y-54964819D02*
X161591904Y-53964819D01*
X161591904Y-53964819D02*
X161687142Y-54107676D01*
X161687142Y-54107676D02*
X161782380Y-54202914D01*
X161782380Y-54202914D02*
X161877618Y-54250533D01*
X116591904Y-100464819D02*
X116591904Y-99464819D01*
X116591904Y-99464819D02*
X116353809Y-99464819D01*
X116353809Y-99464819D02*
X116210952Y-99512438D01*
X116210952Y-99512438D02*
X116115714Y-99607676D01*
X116115714Y-99607676D02*
X116068095Y-99702914D01*
X116068095Y-99702914D02*
X116020476Y-99893390D01*
X116020476Y-99893390D02*
X116020476Y-100036247D01*
X116020476Y-100036247D02*
X116068095Y-100226723D01*
X116068095Y-100226723D02*
X116115714Y-100321961D01*
X116115714Y-100321961D02*
X116210952Y-100417200D01*
X116210952Y-100417200D02*
X116353809Y-100464819D01*
X116353809Y-100464819D02*
X116591904Y-100464819D01*
X115210952Y-100417200D02*
X115306190Y-100464819D01*
X115306190Y-100464819D02*
X115496666Y-100464819D01*
X115496666Y-100464819D02*
X115591904Y-100417200D01*
X115591904Y-100417200D02*
X115639523Y-100321961D01*
X115639523Y-100321961D02*
X115639523Y-99941009D01*
X115639523Y-99941009D02*
X115591904Y-99845771D01*
X115591904Y-99845771D02*
X115496666Y-99798152D01*
X115496666Y-99798152D02*
X115306190Y-99798152D01*
X115306190Y-99798152D02*
X115210952Y-99845771D01*
X115210952Y-99845771D02*
X115163333Y-99941009D01*
X115163333Y-99941009D02*
X115163333Y-100036247D01*
X115163333Y-100036247D02*
X115639523Y-100131485D01*
X114591904Y-100464819D02*
X114687142Y-100417200D01*
X114687142Y-100417200D02*
X114734761Y-100321961D01*
X114734761Y-100321961D02*
X114734761Y-99464819D01*
X113782380Y-100464819D02*
X113782380Y-99941009D01*
X113782380Y-99941009D02*
X113829999Y-99845771D01*
X113829999Y-99845771D02*
X113925237Y-99798152D01*
X113925237Y-99798152D02*
X114115713Y-99798152D01*
X114115713Y-99798152D02*
X114210951Y-99845771D01*
X113782380Y-100417200D02*
X113877618Y-100464819D01*
X113877618Y-100464819D02*
X114115713Y-100464819D01*
X114115713Y-100464819D02*
X114210951Y-100417200D01*
X114210951Y-100417200D02*
X114258570Y-100321961D01*
X114258570Y-100321961D02*
X114258570Y-100226723D01*
X114258570Y-100226723D02*
X114210951Y-100131485D01*
X114210951Y-100131485D02*
X114115713Y-100083866D01*
X114115713Y-100083866D02*
X113877618Y-100083866D01*
X113877618Y-100083866D02*
X113782380Y-100036247D01*
X113401427Y-99798152D02*
X113163332Y-100464819D01*
X112925237Y-99798152D02*
X113163332Y-100464819D01*
X113163332Y-100464819D02*
X113258570Y-100702914D01*
X113258570Y-100702914D02*
X113306189Y-100750533D01*
X113306189Y-100750533D02*
X113401427Y-100798152D01*
X112544284Y-100464819D02*
X112544284Y-99464819D01*
X112544284Y-99464819D02*
X112306189Y-99464819D01*
X112306189Y-99464819D02*
X112163332Y-99512438D01*
X112163332Y-99512438D02*
X112068094Y-99607676D01*
X112068094Y-99607676D02*
X112020475Y-99702914D01*
X112020475Y-99702914D02*
X111972856Y-99893390D01*
X111972856Y-99893390D02*
X111972856Y-100036247D01*
X111972856Y-100036247D02*
X112020475Y-100226723D01*
X112020475Y-100226723D02*
X112068094Y-100321961D01*
X112068094Y-100321961D02*
X112163332Y-100417200D01*
X112163332Y-100417200D02*
X112306189Y-100464819D01*
X112306189Y-100464819D02*
X112544284Y-100464819D01*
X111020475Y-100464819D02*
X111591903Y-100464819D01*
X111306189Y-100464819D02*
X111306189Y-99464819D01*
X111306189Y-99464819D02*
X111401427Y-99607676D01*
X111401427Y-99607676D02*
X111496665Y-99702914D01*
X111496665Y-99702914D02*
X111591903Y-99750533D01*
X81282380Y-99941009D02*
X81615713Y-99941009D01*
X81615713Y-100464819D02*
X81615713Y-99464819D01*
X81615713Y-99464819D02*
X81139523Y-99464819D01*
X80425237Y-99941009D02*
X80282380Y-99988628D01*
X80282380Y-99988628D02*
X80234761Y-100036247D01*
X80234761Y-100036247D02*
X80187142Y-100131485D01*
X80187142Y-100131485D02*
X80187142Y-100274342D01*
X80187142Y-100274342D02*
X80234761Y-100369580D01*
X80234761Y-100369580D02*
X80282380Y-100417200D01*
X80282380Y-100417200D02*
X80377618Y-100464819D01*
X80377618Y-100464819D02*
X80758570Y-100464819D01*
X80758570Y-100464819D02*
X80758570Y-99464819D01*
X80758570Y-99464819D02*
X80425237Y-99464819D01*
X80425237Y-99464819D02*
X80329999Y-99512438D01*
X80329999Y-99512438D02*
X80282380Y-99560057D01*
X80282380Y-99560057D02*
X80234761Y-99655295D01*
X80234761Y-99655295D02*
X80234761Y-99750533D01*
X80234761Y-99750533D02*
X80282380Y-99845771D01*
X80282380Y-99845771D02*
X80329999Y-99893390D01*
X80329999Y-99893390D02*
X80425237Y-99941009D01*
X80425237Y-99941009D02*
X80758570Y-99941009D01*
X79758570Y-100083866D02*
X78996666Y-100083866D01*
X78187142Y-99941009D02*
X78044285Y-99988628D01*
X78044285Y-99988628D02*
X77996666Y-100036247D01*
X77996666Y-100036247D02*
X77949047Y-100131485D01*
X77949047Y-100131485D02*
X77949047Y-100274342D01*
X77949047Y-100274342D02*
X77996666Y-100369580D01*
X77996666Y-100369580D02*
X78044285Y-100417200D01*
X78044285Y-100417200D02*
X78139523Y-100464819D01*
X78139523Y-100464819D02*
X78520475Y-100464819D01*
X78520475Y-100464819D02*
X78520475Y-99464819D01*
X78520475Y-99464819D02*
X78187142Y-99464819D01*
X78187142Y-99464819D02*
X78091904Y-99512438D01*
X78091904Y-99512438D02*
X78044285Y-99560057D01*
X78044285Y-99560057D02*
X77996666Y-99655295D01*
X77996666Y-99655295D02*
X77996666Y-99750533D01*
X77996666Y-99750533D02*
X78044285Y-99845771D01*
X78044285Y-99845771D02*
X78091904Y-99893390D01*
X78091904Y-99893390D02*
X78187142Y-99941009D01*
X78187142Y-99941009D02*
X78520475Y-99941009D01*
X77520475Y-100464819D02*
X77520475Y-99464819D01*
X77520475Y-99464819D02*
X77282380Y-99464819D01*
X77282380Y-99464819D02*
X77139523Y-99512438D01*
X77139523Y-99512438D02*
X77044285Y-99607676D01*
X77044285Y-99607676D02*
X76996666Y-99702914D01*
X76996666Y-99702914D02*
X76949047Y-99893390D01*
X76949047Y-99893390D02*
X76949047Y-100036247D01*
X76949047Y-100036247D02*
X76996666Y-100226723D01*
X76996666Y-100226723D02*
X77044285Y-100321961D01*
X77044285Y-100321961D02*
X77139523Y-100417200D01*
X77139523Y-100417200D02*
X77282380Y-100464819D01*
X77282380Y-100464819D02*
X77520475Y-100464819D01*
X75996666Y-100464819D02*
X76568094Y-100464819D01*
X76282380Y-100464819D02*
X76282380Y-99464819D01*
X76282380Y-99464819D02*
X76377618Y-99607676D01*
X76377618Y-99607676D02*
X76472856Y-99702914D01*
X76472856Y-99702914D02*
X76568094Y-99750533D01*
X46282380Y-77191009D02*
X46615713Y-77191009D01*
X46615713Y-77714819D02*
X46615713Y-76714819D01*
X46615713Y-76714819D02*
X46139523Y-76714819D01*
X45425237Y-77191009D02*
X45282380Y-77238628D01*
X45282380Y-77238628D02*
X45234761Y-77286247D01*
X45234761Y-77286247D02*
X45187142Y-77381485D01*
X45187142Y-77381485D02*
X45187142Y-77524342D01*
X45187142Y-77524342D02*
X45234761Y-77619580D01*
X45234761Y-77619580D02*
X45282380Y-77667200D01*
X45282380Y-77667200D02*
X45377618Y-77714819D01*
X45377618Y-77714819D02*
X45758570Y-77714819D01*
X45758570Y-77714819D02*
X45758570Y-76714819D01*
X45758570Y-76714819D02*
X45425237Y-76714819D01*
X45425237Y-76714819D02*
X45329999Y-76762438D01*
X45329999Y-76762438D02*
X45282380Y-76810057D01*
X45282380Y-76810057D02*
X45234761Y-76905295D01*
X45234761Y-76905295D02*
X45234761Y-77000533D01*
X45234761Y-77000533D02*
X45282380Y-77095771D01*
X45282380Y-77095771D02*
X45329999Y-77143390D01*
X45329999Y-77143390D02*
X45425237Y-77191009D01*
X45425237Y-77191009D02*
X45758570Y-77191009D01*
X44758570Y-77333866D02*
X43996666Y-77333866D01*
X43520475Y-77714819D02*
X43520475Y-76714819D01*
X43520475Y-76714819D02*
X43282380Y-76714819D01*
X43282380Y-76714819D02*
X43139523Y-76762438D01*
X43139523Y-76762438D02*
X43044285Y-76857676D01*
X43044285Y-76857676D02*
X42996666Y-76952914D01*
X42996666Y-76952914D02*
X42949047Y-77143390D01*
X42949047Y-77143390D02*
X42949047Y-77286247D01*
X42949047Y-77286247D02*
X42996666Y-77476723D01*
X42996666Y-77476723D02*
X43044285Y-77571961D01*
X43044285Y-77571961D02*
X43139523Y-77667200D01*
X43139523Y-77667200D02*
X43282380Y-77714819D01*
X43282380Y-77714819D02*
X43520475Y-77714819D01*
X41949047Y-77619580D02*
X41996666Y-77667200D01*
X41996666Y-77667200D02*
X42139523Y-77714819D01*
X42139523Y-77714819D02*
X42234761Y-77714819D01*
X42234761Y-77714819D02*
X42377618Y-77667200D01*
X42377618Y-77667200D02*
X42472856Y-77571961D01*
X42472856Y-77571961D02*
X42520475Y-77476723D01*
X42520475Y-77476723D02*
X42568094Y-77286247D01*
X42568094Y-77286247D02*
X42568094Y-77143390D01*
X42568094Y-77143390D02*
X42520475Y-76952914D01*
X42520475Y-76952914D02*
X42472856Y-76857676D01*
X42472856Y-76857676D02*
X42377618Y-76762438D01*
X42377618Y-76762438D02*
X42234761Y-76714819D01*
X42234761Y-76714819D02*
X42139523Y-76714819D01*
X42139523Y-76714819D02*
X41996666Y-76762438D01*
X41996666Y-76762438D02*
X41949047Y-76810057D01*
X40996666Y-77714819D02*
X41568094Y-77714819D01*
X41282380Y-77714819D02*
X41282380Y-76714819D01*
X41282380Y-76714819D02*
X41377618Y-76857676D01*
X41377618Y-76857676D02*
X41472856Y-76952914D01*
X41472856Y-76952914D02*
X41568094Y-77000533D01*
X98710952Y-99941009D02*
X99044285Y-99941009D01*
X99044285Y-100464819D02*
X99044285Y-99464819D01*
X99044285Y-99464819D02*
X98568095Y-99464819D01*
X97853809Y-99941009D02*
X97710952Y-99988628D01*
X97710952Y-99988628D02*
X97663333Y-100036247D01*
X97663333Y-100036247D02*
X97615714Y-100131485D01*
X97615714Y-100131485D02*
X97615714Y-100274342D01*
X97615714Y-100274342D02*
X97663333Y-100369580D01*
X97663333Y-100369580D02*
X97710952Y-100417200D01*
X97710952Y-100417200D02*
X97806190Y-100464819D01*
X97806190Y-100464819D02*
X98187142Y-100464819D01*
X98187142Y-100464819D02*
X98187142Y-99464819D01*
X98187142Y-99464819D02*
X97853809Y-99464819D01*
X97853809Y-99464819D02*
X97758571Y-99512438D01*
X97758571Y-99512438D02*
X97710952Y-99560057D01*
X97710952Y-99560057D02*
X97663333Y-99655295D01*
X97663333Y-99655295D02*
X97663333Y-99750533D01*
X97663333Y-99750533D02*
X97710952Y-99845771D01*
X97710952Y-99845771D02*
X97758571Y-99893390D01*
X97758571Y-99893390D02*
X97853809Y-99941009D01*
X97853809Y-99941009D02*
X98187142Y-99941009D01*
X97187142Y-100083866D02*
X96425238Y-100083866D01*
X95996666Y-100179104D02*
X95520476Y-100179104D01*
X96091904Y-100464819D02*
X95758571Y-99464819D01*
X95758571Y-99464819D02*
X95425238Y-100464819D01*
X95091904Y-100464819D02*
X95091904Y-99464819D01*
X95091904Y-99464819D02*
X94853809Y-99464819D01*
X94853809Y-99464819D02*
X94710952Y-99512438D01*
X94710952Y-99512438D02*
X94615714Y-99607676D01*
X94615714Y-99607676D02*
X94568095Y-99702914D01*
X94568095Y-99702914D02*
X94520476Y-99893390D01*
X94520476Y-99893390D02*
X94520476Y-100036247D01*
X94520476Y-100036247D02*
X94568095Y-100226723D01*
X94568095Y-100226723D02*
X94615714Y-100321961D01*
X94615714Y-100321961D02*
X94710952Y-100417200D01*
X94710952Y-100417200D02*
X94853809Y-100464819D01*
X94853809Y-100464819D02*
X95091904Y-100464819D01*
X93568095Y-100464819D02*
X94139523Y-100464819D01*
X93853809Y-100464819D02*
X93853809Y-99464819D01*
X93853809Y-99464819D02*
X93949047Y-99607676D01*
X93949047Y-99607676D02*
X94044285Y-99702914D01*
X94044285Y-99702914D02*
X94139523Y-99750533D01*
X167282380Y-32167200D02*
X167139523Y-32214819D01*
X167139523Y-32214819D02*
X166901428Y-32214819D01*
X166901428Y-32214819D02*
X166806190Y-32167200D01*
X166806190Y-32167200D02*
X166758571Y-32119580D01*
X166758571Y-32119580D02*
X166710952Y-32024342D01*
X166710952Y-32024342D02*
X166710952Y-31929104D01*
X166710952Y-31929104D02*
X166758571Y-31833866D01*
X166758571Y-31833866D02*
X166806190Y-31786247D01*
X166806190Y-31786247D02*
X166901428Y-31738628D01*
X166901428Y-31738628D02*
X167091904Y-31691009D01*
X167091904Y-31691009D02*
X167187142Y-31643390D01*
X167187142Y-31643390D02*
X167234761Y-31595771D01*
X167234761Y-31595771D02*
X167282380Y-31500533D01*
X167282380Y-31500533D02*
X167282380Y-31405295D01*
X167282380Y-31405295D02*
X167234761Y-31310057D01*
X167234761Y-31310057D02*
X167187142Y-31262438D01*
X167187142Y-31262438D02*
X167091904Y-31214819D01*
X167091904Y-31214819D02*
X166853809Y-31214819D01*
X166853809Y-31214819D02*
X166710952Y-31262438D01*
X166282380Y-31548152D02*
X166282380Y-32548152D01*
X166282380Y-31595771D02*
X166187142Y-31548152D01*
X166187142Y-31548152D02*
X165996666Y-31548152D01*
X165996666Y-31548152D02*
X165901428Y-31595771D01*
X165901428Y-31595771D02*
X165853809Y-31643390D01*
X165853809Y-31643390D02*
X165806190Y-31738628D01*
X165806190Y-31738628D02*
X165806190Y-32024342D01*
X165806190Y-32024342D02*
X165853809Y-32119580D01*
X165853809Y-32119580D02*
X165901428Y-32167200D01*
X165901428Y-32167200D02*
X165996666Y-32214819D01*
X165996666Y-32214819D02*
X166187142Y-32214819D01*
X166187142Y-32214819D02*
X166282380Y-32167200D01*
X164996666Y-32167200D02*
X165091904Y-32214819D01*
X165091904Y-32214819D02*
X165282380Y-32214819D01*
X165282380Y-32214819D02*
X165377618Y-32167200D01*
X165377618Y-32167200D02*
X165425237Y-32071961D01*
X165425237Y-32071961D02*
X165425237Y-31691009D01*
X165425237Y-31691009D02*
X165377618Y-31595771D01*
X165377618Y-31595771D02*
X165282380Y-31548152D01*
X165282380Y-31548152D02*
X165091904Y-31548152D01*
X165091904Y-31548152D02*
X164996666Y-31595771D01*
X164996666Y-31595771D02*
X164949047Y-31691009D01*
X164949047Y-31691009D02*
X164949047Y-31786247D01*
X164949047Y-31786247D02*
X165425237Y-31881485D01*
X164139523Y-32167200D02*
X164234761Y-32214819D01*
X164234761Y-32214819D02*
X164425237Y-32214819D01*
X164425237Y-32214819D02*
X164520475Y-32167200D01*
X164520475Y-32167200D02*
X164568094Y-32071961D01*
X164568094Y-32071961D02*
X164568094Y-31691009D01*
X164568094Y-31691009D02*
X164520475Y-31595771D01*
X164520475Y-31595771D02*
X164425237Y-31548152D01*
X164425237Y-31548152D02*
X164234761Y-31548152D01*
X164234761Y-31548152D02*
X164139523Y-31595771D01*
X164139523Y-31595771D02*
X164091904Y-31691009D01*
X164091904Y-31691009D02*
X164091904Y-31786247D01*
X164091904Y-31786247D02*
X164568094Y-31881485D01*
X163234761Y-32214819D02*
X163234761Y-31214819D01*
X163234761Y-32167200D02*
X163329999Y-32214819D01*
X163329999Y-32214819D02*
X163520475Y-32214819D01*
X163520475Y-32214819D02*
X163615713Y-32167200D01*
X163615713Y-32167200D02*
X163663332Y-32119580D01*
X163663332Y-32119580D02*
X163710951Y-32024342D01*
X163710951Y-32024342D02*
X163710951Y-31738628D01*
X163710951Y-31738628D02*
X163663332Y-31643390D01*
X163663332Y-31643390D02*
X163615713Y-31595771D01*
X163615713Y-31595771D02*
X163520475Y-31548152D01*
X163520475Y-31548152D02*
X163329999Y-31548152D01*
X163329999Y-31548152D02*
X163234761Y-31595771D01*
X162806189Y-31929104D02*
X162329999Y-31929104D01*
X162901427Y-32214819D02*
X162568094Y-31214819D01*
X162568094Y-31214819D02*
X162234761Y-32214819D01*
X161377618Y-32214819D02*
X161949046Y-32214819D01*
X161663332Y-32214819D02*
X161663332Y-31214819D01*
X161663332Y-31214819D02*
X161758570Y-31357676D01*
X161758570Y-31357676D02*
X161853808Y-31452914D01*
X161853808Y-31452914D02*
X161949046Y-31500533D01*
X81282380Y-54441009D02*
X81615713Y-54441009D01*
X81615713Y-54964819D02*
X81615713Y-53964819D01*
X81615713Y-53964819D02*
X81139523Y-53964819D01*
X80425237Y-54441009D02*
X80282380Y-54488628D01*
X80282380Y-54488628D02*
X80234761Y-54536247D01*
X80234761Y-54536247D02*
X80187142Y-54631485D01*
X80187142Y-54631485D02*
X80187142Y-54774342D01*
X80187142Y-54774342D02*
X80234761Y-54869580D01*
X80234761Y-54869580D02*
X80282380Y-54917200D01*
X80282380Y-54917200D02*
X80377618Y-54964819D01*
X80377618Y-54964819D02*
X80758570Y-54964819D01*
X80758570Y-54964819D02*
X80758570Y-53964819D01*
X80758570Y-53964819D02*
X80425237Y-53964819D01*
X80425237Y-53964819D02*
X80329999Y-54012438D01*
X80329999Y-54012438D02*
X80282380Y-54060057D01*
X80282380Y-54060057D02*
X80234761Y-54155295D01*
X80234761Y-54155295D02*
X80234761Y-54250533D01*
X80234761Y-54250533D02*
X80282380Y-54345771D01*
X80282380Y-54345771D02*
X80329999Y-54393390D01*
X80329999Y-54393390D02*
X80425237Y-54441009D01*
X80425237Y-54441009D02*
X80758570Y-54441009D01*
X79758570Y-54583866D02*
X78996666Y-54583866D01*
X78187142Y-54441009D02*
X78044285Y-54488628D01*
X78044285Y-54488628D02*
X77996666Y-54536247D01*
X77996666Y-54536247D02*
X77949047Y-54631485D01*
X77949047Y-54631485D02*
X77949047Y-54774342D01*
X77949047Y-54774342D02*
X77996666Y-54869580D01*
X77996666Y-54869580D02*
X78044285Y-54917200D01*
X78044285Y-54917200D02*
X78139523Y-54964819D01*
X78139523Y-54964819D02*
X78520475Y-54964819D01*
X78520475Y-54964819D02*
X78520475Y-53964819D01*
X78520475Y-53964819D02*
X78187142Y-53964819D01*
X78187142Y-53964819D02*
X78091904Y-54012438D01*
X78091904Y-54012438D02*
X78044285Y-54060057D01*
X78044285Y-54060057D02*
X77996666Y-54155295D01*
X77996666Y-54155295D02*
X77996666Y-54250533D01*
X77996666Y-54250533D02*
X78044285Y-54345771D01*
X78044285Y-54345771D02*
X78091904Y-54393390D01*
X78091904Y-54393390D02*
X78187142Y-54441009D01*
X78187142Y-54441009D02*
X78520475Y-54441009D01*
X77187142Y-54441009D02*
X77044285Y-54488628D01*
X77044285Y-54488628D02*
X76996666Y-54536247D01*
X76996666Y-54536247D02*
X76949047Y-54631485D01*
X76949047Y-54631485D02*
X76949047Y-54774342D01*
X76949047Y-54774342D02*
X76996666Y-54869580D01*
X76996666Y-54869580D02*
X77044285Y-54917200D01*
X77044285Y-54917200D02*
X77139523Y-54964819D01*
X77139523Y-54964819D02*
X77520475Y-54964819D01*
X77520475Y-54964819D02*
X77520475Y-53964819D01*
X77520475Y-53964819D02*
X77187142Y-53964819D01*
X77187142Y-53964819D02*
X77091904Y-54012438D01*
X77091904Y-54012438D02*
X77044285Y-54060057D01*
X77044285Y-54060057D02*
X76996666Y-54155295D01*
X76996666Y-54155295D02*
X76996666Y-54250533D01*
X76996666Y-54250533D02*
X77044285Y-54345771D01*
X77044285Y-54345771D02*
X77091904Y-54393390D01*
X77091904Y-54393390D02*
X77187142Y-54441009D01*
X77187142Y-54441009D02*
X77520475Y-54441009D01*
X75996666Y-54964819D02*
X76568094Y-54964819D01*
X76282380Y-54964819D02*
X76282380Y-53964819D01*
X76282380Y-53964819D02*
X76377618Y-54107676D01*
X76377618Y-54107676D02*
X76472856Y-54202914D01*
X76472856Y-54202914D02*
X76568094Y-54250533D01*
X45782380Y-123214819D02*
X45782380Y-122214819D01*
X45782380Y-122214819D02*
X45449047Y-122929104D01*
X45449047Y-122929104D02*
X45115714Y-122214819D01*
X45115714Y-122214819D02*
X45115714Y-123214819D01*
X44639523Y-123214819D02*
X44639523Y-122548152D01*
X44639523Y-122214819D02*
X44687142Y-122262438D01*
X44687142Y-122262438D02*
X44639523Y-122310057D01*
X44639523Y-122310057D02*
X44591904Y-122262438D01*
X44591904Y-122262438D02*
X44639523Y-122214819D01*
X44639523Y-122214819D02*
X44639523Y-122310057D01*
X44258571Y-123214819D02*
X43734762Y-122548152D01*
X44258571Y-122548152D02*
X43734762Y-123214819D01*
X43353809Y-123214819D02*
X43353809Y-122214819D01*
X43353809Y-122214819D02*
X43115714Y-122214819D01*
X43115714Y-122214819D02*
X42972857Y-122262438D01*
X42972857Y-122262438D02*
X42877619Y-122357676D01*
X42877619Y-122357676D02*
X42830000Y-122452914D01*
X42830000Y-122452914D02*
X42782381Y-122643390D01*
X42782381Y-122643390D02*
X42782381Y-122786247D01*
X42782381Y-122786247D02*
X42830000Y-122976723D01*
X42830000Y-122976723D02*
X42877619Y-123071961D01*
X42877619Y-123071961D02*
X42972857Y-123167200D01*
X42972857Y-123167200D02*
X43115714Y-123214819D01*
X43115714Y-123214819D02*
X43353809Y-123214819D01*
X41830000Y-123214819D02*
X42401428Y-123214819D01*
X42115714Y-123214819D02*
X42115714Y-122214819D01*
X42115714Y-122214819D02*
X42210952Y-122357676D01*
X42210952Y-122357676D02*
X42306190Y-122452914D01*
X42306190Y-122452914D02*
X42401428Y-122500533D01*
X63782380Y-77191009D02*
X64115713Y-77191009D01*
X64115713Y-77714819D02*
X64115713Y-76714819D01*
X64115713Y-76714819D02*
X63639523Y-76714819D01*
X62925237Y-77191009D02*
X62782380Y-77238628D01*
X62782380Y-77238628D02*
X62734761Y-77286247D01*
X62734761Y-77286247D02*
X62687142Y-77381485D01*
X62687142Y-77381485D02*
X62687142Y-77524342D01*
X62687142Y-77524342D02*
X62734761Y-77619580D01*
X62734761Y-77619580D02*
X62782380Y-77667200D01*
X62782380Y-77667200D02*
X62877618Y-77714819D01*
X62877618Y-77714819D02*
X63258570Y-77714819D01*
X63258570Y-77714819D02*
X63258570Y-76714819D01*
X63258570Y-76714819D02*
X62925237Y-76714819D01*
X62925237Y-76714819D02*
X62829999Y-76762438D01*
X62829999Y-76762438D02*
X62782380Y-76810057D01*
X62782380Y-76810057D02*
X62734761Y-76905295D01*
X62734761Y-76905295D02*
X62734761Y-77000533D01*
X62734761Y-77000533D02*
X62782380Y-77095771D01*
X62782380Y-77095771D02*
X62829999Y-77143390D01*
X62829999Y-77143390D02*
X62925237Y-77191009D01*
X62925237Y-77191009D02*
X63258570Y-77191009D01*
X62258570Y-77333866D02*
X61496666Y-77333866D01*
X60449047Y-77619580D02*
X60496666Y-77667200D01*
X60496666Y-77667200D02*
X60639523Y-77714819D01*
X60639523Y-77714819D02*
X60734761Y-77714819D01*
X60734761Y-77714819D02*
X60877618Y-77667200D01*
X60877618Y-77667200D02*
X60972856Y-77571961D01*
X60972856Y-77571961D02*
X61020475Y-77476723D01*
X61020475Y-77476723D02*
X61068094Y-77286247D01*
X61068094Y-77286247D02*
X61068094Y-77143390D01*
X61068094Y-77143390D02*
X61020475Y-76952914D01*
X61020475Y-76952914D02*
X60972856Y-76857676D01*
X60972856Y-76857676D02*
X60877618Y-76762438D01*
X60877618Y-76762438D02*
X60734761Y-76714819D01*
X60734761Y-76714819D02*
X60639523Y-76714819D01*
X60639523Y-76714819D02*
X60496666Y-76762438D01*
X60496666Y-76762438D02*
X60449047Y-76810057D01*
X59449047Y-77619580D02*
X59496666Y-77667200D01*
X59496666Y-77667200D02*
X59639523Y-77714819D01*
X59639523Y-77714819D02*
X59734761Y-77714819D01*
X59734761Y-77714819D02*
X59877618Y-77667200D01*
X59877618Y-77667200D02*
X59972856Y-77571961D01*
X59972856Y-77571961D02*
X60020475Y-77476723D01*
X60020475Y-77476723D02*
X60068094Y-77286247D01*
X60068094Y-77286247D02*
X60068094Y-77143390D01*
X60068094Y-77143390D02*
X60020475Y-76952914D01*
X60020475Y-76952914D02*
X59972856Y-76857676D01*
X59972856Y-76857676D02*
X59877618Y-76762438D01*
X59877618Y-76762438D02*
X59734761Y-76714819D01*
X59734761Y-76714819D02*
X59639523Y-76714819D01*
X59639523Y-76714819D02*
X59496666Y-76762438D01*
X59496666Y-76762438D02*
X59449047Y-76810057D01*
X58496666Y-77714819D02*
X59068094Y-77714819D01*
X58782380Y-77714819D02*
X58782380Y-76714819D01*
X58782380Y-76714819D02*
X58877618Y-76857676D01*
X58877618Y-76857676D02*
X58972856Y-76952914D01*
X58972856Y-76952914D02*
X59068094Y-77000533D01*
X98710952Y-54441009D02*
X99044285Y-54441009D01*
X99044285Y-54964819D02*
X99044285Y-53964819D01*
X99044285Y-53964819D02*
X98568095Y-53964819D01*
X97853809Y-54441009D02*
X97710952Y-54488628D01*
X97710952Y-54488628D02*
X97663333Y-54536247D01*
X97663333Y-54536247D02*
X97615714Y-54631485D01*
X97615714Y-54631485D02*
X97615714Y-54774342D01*
X97615714Y-54774342D02*
X97663333Y-54869580D01*
X97663333Y-54869580D02*
X97710952Y-54917200D01*
X97710952Y-54917200D02*
X97806190Y-54964819D01*
X97806190Y-54964819D02*
X98187142Y-54964819D01*
X98187142Y-54964819D02*
X98187142Y-53964819D01*
X98187142Y-53964819D02*
X97853809Y-53964819D01*
X97853809Y-53964819D02*
X97758571Y-54012438D01*
X97758571Y-54012438D02*
X97710952Y-54060057D01*
X97710952Y-54060057D02*
X97663333Y-54155295D01*
X97663333Y-54155295D02*
X97663333Y-54250533D01*
X97663333Y-54250533D02*
X97710952Y-54345771D01*
X97710952Y-54345771D02*
X97758571Y-54393390D01*
X97758571Y-54393390D02*
X97853809Y-54441009D01*
X97853809Y-54441009D02*
X98187142Y-54441009D01*
X97187142Y-54583866D02*
X96425238Y-54583866D01*
X95996666Y-54679104D02*
X95520476Y-54679104D01*
X96091904Y-54964819D02*
X95758571Y-53964819D01*
X95758571Y-53964819D02*
X95425238Y-54964819D01*
X94758571Y-54441009D02*
X94615714Y-54488628D01*
X94615714Y-54488628D02*
X94568095Y-54536247D01*
X94568095Y-54536247D02*
X94520476Y-54631485D01*
X94520476Y-54631485D02*
X94520476Y-54774342D01*
X94520476Y-54774342D02*
X94568095Y-54869580D01*
X94568095Y-54869580D02*
X94615714Y-54917200D01*
X94615714Y-54917200D02*
X94710952Y-54964819D01*
X94710952Y-54964819D02*
X95091904Y-54964819D01*
X95091904Y-54964819D02*
X95091904Y-53964819D01*
X95091904Y-53964819D02*
X94758571Y-53964819D01*
X94758571Y-53964819D02*
X94663333Y-54012438D01*
X94663333Y-54012438D02*
X94615714Y-54060057D01*
X94615714Y-54060057D02*
X94568095Y-54155295D01*
X94568095Y-54155295D02*
X94568095Y-54250533D01*
X94568095Y-54250533D02*
X94615714Y-54345771D01*
X94615714Y-54345771D02*
X94663333Y-54393390D01*
X94663333Y-54393390D02*
X94758571Y-54441009D01*
X94758571Y-54441009D02*
X95091904Y-54441009D01*
X93568095Y-54964819D02*
X94139523Y-54964819D01*
X93853809Y-54964819D02*
X93853809Y-53964819D01*
X93853809Y-53964819D02*
X93949047Y-54107676D01*
X93949047Y-54107676D02*
X94044285Y-54202914D01*
X94044285Y-54202914D02*
X94139523Y-54250533D01*
X149615714Y-32214819D02*
X149615714Y-31214819D01*
X149615714Y-31214819D02*
X149377619Y-31214819D01*
X149377619Y-31214819D02*
X149234762Y-31262438D01*
X149234762Y-31262438D02*
X149139524Y-31357676D01*
X149139524Y-31357676D02*
X149091905Y-31452914D01*
X149091905Y-31452914D02*
X149044286Y-31643390D01*
X149044286Y-31643390D02*
X149044286Y-31786247D01*
X149044286Y-31786247D02*
X149091905Y-31976723D01*
X149091905Y-31976723D02*
X149139524Y-32071961D01*
X149139524Y-32071961D02*
X149234762Y-32167200D01*
X149234762Y-32167200D02*
X149377619Y-32214819D01*
X149377619Y-32214819D02*
X149615714Y-32214819D01*
X148234762Y-32167200D02*
X148330000Y-32214819D01*
X148330000Y-32214819D02*
X148520476Y-32214819D01*
X148520476Y-32214819D02*
X148615714Y-32167200D01*
X148615714Y-32167200D02*
X148663333Y-32071961D01*
X148663333Y-32071961D02*
X148663333Y-31691009D01*
X148663333Y-31691009D02*
X148615714Y-31595771D01*
X148615714Y-31595771D02*
X148520476Y-31548152D01*
X148520476Y-31548152D02*
X148330000Y-31548152D01*
X148330000Y-31548152D02*
X148234762Y-31595771D01*
X148234762Y-31595771D02*
X148187143Y-31691009D01*
X148187143Y-31691009D02*
X148187143Y-31786247D01*
X148187143Y-31786247D02*
X148663333Y-31881485D01*
X147758571Y-31548152D02*
X147758571Y-32548152D01*
X147758571Y-31595771D02*
X147663333Y-31548152D01*
X147663333Y-31548152D02*
X147472857Y-31548152D01*
X147472857Y-31548152D02*
X147377619Y-31595771D01*
X147377619Y-31595771D02*
X147330000Y-31643390D01*
X147330000Y-31643390D02*
X147282381Y-31738628D01*
X147282381Y-31738628D02*
X147282381Y-32024342D01*
X147282381Y-32024342D02*
X147330000Y-32119580D01*
X147330000Y-32119580D02*
X147377619Y-32167200D01*
X147377619Y-32167200D02*
X147472857Y-32214819D01*
X147472857Y-32214819D02*
X147663333Y-32214819D01*
X147663333Y-32214819D02*
X147758571Y-32167200D01*
X146996666Y-31548152D02*
X146615714Y-31548152D01*
X146853809Y-31214819D02*
X146853809Y-32071961D01*
X146853809Y-32071961D02*
X146806190Y-32167200D01*
X146806190Y-32167200D02*
X146710952Y-32214819D01*
X146710952Y-32214819D02*
X146615714Y-32214819D01*
X146282380Y-32214819D02*
X146282380Y-31214819D01*
X145853809Y-32214819D02*
X145853809Y-31691009D01*
X145853809Y-31691009D02*
X145901428Y-31595771D01*
X145901428Y-31595771D02*
X145996666Y-31548152D01*
X145996666Y-31548152D02*
X146139523Y-31548152D01*
X146139523Y-31548152D02*
X146234761Y-31595771D01*
X146234761Y-31595771D02*
X146282380Y-31643390D01*
X145425237Y-31929104D02*
X144949047Y-31929104D01*
X145520475Y-32214819D02*
X145187142Y-31214819D01*
X145187142Y-31214819D02*
X144853809Y-32214819D01*
X143996666Y-32214819D02*
X144568094Y-32214819D01*
X144282380Y-32214819D02*
X144282380Y-31214819D01*
X144282380Y-31214819D02*
X144377618Y-31357676D01*
X144377618Y-31357676D02*
X144472856Y-31452914D01*
X144472856Y-31452914D02*
X144568094Y-31500533D01*
X63782380Y-54441009D02*
X64115713Y-54441009D01*
X64115713Y-54964819D02*
X64115713Y-53964819D01*
X64115713Y-53964819D02*
X63639523Y-53964819D01*
X62925237Y-54441009D02*
X62782380Y-54488628D01*
X62782380Y-54488628D02*
X62734761Y-54536247D01*
X62734761Y-54536247D02*
X62687142Y-54631485D01*
X62687142Y-54631485D02*
X62687142Y-54774342D01*
X62687142Y-54774342D02*
X62734761Y-54869580D01*
X62734761Y-54869580D02*
X62782380Y-54917200D01*
X62782380Y-54917200D02*
X62877618Y-54964819D01*
X62877618Y-54964819D02*
X63258570Y-54964819D01*
X63258570Y-54964819D02*
X63258570Y-53964819D01*
X63258570Y-53964819D02*
X62925237Y-53964819D01*
X62925237Y-53964819D02*
X62829999Y-54012438D01*
X62829999Y-54012438D02*
X62782380Y-54060057D01*
X62782380Y-54060057D02*
X62734761Y-54155295D01*
X62734761Y-54155295D02*
X62734761Y-54250533D01*
X62734761Y-54250533D02*
X62782380Y-54345771D01*
X62782380Y-54345771D02*
X62829999Y-54393390D01*
X62829999Y-54393390D02*
X62925237Y-54441009D01*
X62925237Y-54441009D02*
X63258570Y-54441009D01*
X62258570Y-54583866D02*
X61496666Y-54583866D01*
X60449047Y-54869580D02*
X60496666Y-54917200D01*
X60496666Y-54917200D02*
X60639523Y-54964819D01*
X60639523Y-54964819D02*
X60734761Y-54964819D01*
X60734761Y-54964819D02*
X60877618Y-54917200D01*
X60877618Y-54917200D02*
X60972856Y-54821961D01*
X60972856Y-54821961D02*
X61020475Y-54726723D01*
X61020475Y-54726723D02*
X61068094Y-54536247D01*
X61068094Y-54536247D02*
X61068094Y-54393390D01*
X61068094Y-54393390D02*
X61020475Y-54202914D01*
X61020475Y-54202914D02*
X60972856Y-54107676D01*
X60972856Y-54107676D02*
X60877618Y-54012438D01*
X60877618Y-54012438D02*
X60734761Y-53964819D01*
X60734761Y-53964819D02*
X60639523Y-53964819D01*
X60639523Y-53964819D02*
X60496666Y-54012438D01*
X60496666Y-54012438D02*
X60449047Y-54060057D01*
X59687142Y-54441009D02*
X59544285Y-54488628D01*
X59544285Y-54488628D02*
X59496666Y-54536247D01*
X59496666Y-54536247D02*
X59449047Y-54631485D01*
X59449047Y-54631485D02*
X59449047Y-54774342D01*
X59449047Y-54774342D02*
X59496666Y-54869580D01*
X59496666Y-54869580D02*
X59544285Y-54917200D01*
X59544285Y-54917200D02*
X59639523Y-54964819D01*
X59639523Y-54964819D02*
X60020475Y-54964819D01*
X60020475Y-54964819D02*
X60020475Y-53964819D01*
X60020475Y-53964819D02*
X59687142Y-53964819D01*
X59687142Y-53964819D02*
X59591904Y-54012438D01*
X59591904Y-54012438D02*
X59544285Y-54060057D01*
X59544285Y-54060057D02*
X59496666Y-54155295D01*
X59496666Y-54155295D02*
X59496666Y-54250533D01*
X59496666Y-54250533D02*
X59544285Y-54345771D01*
X59544285Y-54345771D02*
X59591904Y-54393390D01*
X59591904Y-54393390D02*
X59687142Y-54441009D01*
X59687142Y-54441009D02*
X60020475Y-54441009D01*
X58496666Y-54964819D02*
X59068094Y-54964819D01*
X58782380Y-54964819D02*
X58782380Y-53964819D01*
X58782380Y-53964819D02*
X58877618Y-54107676D01*
X58877618Y-54107676D02*
X58972856Y-54202914D01*
X58972856Y-54202914D02*
X59068094Y-54250533D01*
X46282380Y-99941009D02*
X46615713Y-99941009D01*
X46615713Y-100464819D02*
X46615713Y-99464819D01*
X46615713Y-99464819D02*
X46139523Y-99464819D01*
X45425237Y-99941009D02*
X45282380Y-99988628D01*
X45282380Y-99988628D02*
X45234761Y-100036247D01*
X45234761Y-100036247D02*
X45187142Y-100131485D01*
X45187142Y-100131485D02*
X45187142Y-100274342D01*
X45187142Y-100274342D02*
X45234761Y-100369580D01*
X45234761Y-100369580D02*
X45282380Y-100417200D01*
X45282380Y-100417200D02*
X45377618Y-100464819D01*
X45377618Y-100464819D02*
X45758570Y-100464819D01*
X45758570Y-100464819D02*
X45758570Y-99464819D01*
X45758570Y-99464819D02*
X45425237Y-99464819D01*
X45425237Y-99464819D02*
X45329999Y-99512438D01*
X45329999Y-99512438D02*
X45282380Y-99560057D01*
X45282380Y-99560057D02*
X45234761Y-99655295D01*
X45234761Y-99655295D02*
X45234761Y-99750533D01*
X45234761Y-99750533D02*
X45282380Y-99845771D01*
X45282380Y-99845771D02*
X45329999Y-99893390D01*
X45329999Y-99893390D02*
X45425237Y-99941009D01*
X45425237Y-99941009D02*
X45758570Y-99941009D01*
X44758570Y-100083866D02*
X43996666Y-100083866D01*
X43520475Y-100464819D02*
X43520475Y-99464819D01*
X43520475Y-99464819D02*
X43282380Y-99464819D01*
X43282380Y-99464819D02*
X43139523Y-99512438D01*
X43139523Y-99512438D02*
X43044285Y-99607676D01*
X43044285Y-99607676D02*
X42996666Y-99702914D01*
X42996666Y-99702914D02*
X42949047Y-99893390D01*
X42949047Y-99893390D02*
X42949047Y-100036247D01*
X42949047Y-100036247D02*
X42996666Y-100226723D01*
X42996666Y-100226723D02*
X43044285Y-100321961D01*
X43044285Y-100321961D02*
X43139523Y-100417200D01*
X43139523Y-100417200D02*
X43282380Y-100464819D01*
X43282380Y-100464819D02*
X43520475Y-100464819D01*
X42520475Y-100464819D02*
X42520475Y-99464819D01*
X42520475Y-99464819D02*
X42282380Y-99464819D01*
X42282380Y-99464819D02*
X42139523Y-99512438D01*
X42139523Y-99512438D02*
X42044285Y-99607676D01*
X42044285Y-99607676D02*
X41996666Y-99702914D01*
X41996666Y-99702914D02*
X41949047Y-99893390D01*
X41949047Y-99893390D02*
X41949047Y-100036247D01*
X41949047Y-100036247D02*
X41996666Y-100226723D01*
X41996666Y-100226723D02*
X42044285Y-100321961D01*
X42044285Y-100321961D02*
X42139523Y-100417200D01*
X42139523Y-100417200D02*
X42282380Y-100464819D01*
X42282380Y-100464819D02*
X42520475Y-100464819D01*
X40996666Y-100464819D02*
X41568094Y-100464819D01*
X41282380Y-100464819D02*
X41282380Y-99464819D01*
X41282380Y-99464819D02*
X41377618Y-99607676D01*
X41377618Y-99607676D02*
X41472856Y-99702914D01*
X41472856Y-99702914D02*
X41568094Y-99750533D01*
X98210951Y-123214819D02*
X98210951Y-122214819D01*
X98210951Y-122214819D02*
X97877618Y-122929104D01*
X97877618Y-122929104D02*
X97544285Y-122214819D01*
X97544285Y-122214819D02*
X97544285Y-123214819D01*
X97068094Y-123214819D02*
X97068094Y-122548152D01*
X97068094Y-122214819D02*
X97115713Y-122262438D01*
X97115713Y-122262438D02*
X97068094Y-122310057D01*
X97068094Y-122310057D02*
X97020475Y-122262438D01*
X97020475Y-122262438D02*
X97068094Y-122214819D01*
X97068094Y-122214819D02*
X97068094Y-122310057D01*
X96687142Y-123214819D02*
X96163333Y-122548152D01*
X96687142Y-122548152D02*
X96163333Y-123214819D01*
X95829999Y-122929104D02*
X95353809Y-122929104D01*
X95925237Y-123214819D02*
X95591904Y-122214819D01*
X95591904Y-122214819D02*
X95258571Y-123214819D01*
X94401428Y-123214819D02*
X94972856Y-123214819D01*
X94687142Y-123214819D02*
X94687142Y-122214819D01*
X94687142Y-122214819D02*
X94782380Y-122357676D01*
X94782380Y-122357676D02*
X94877618Y-122452914D01*
X94877618Y-122452914D02*
X94972856Y-122500533D01*
X63710952Y-31691009D02*
X64044285Y-31691009D01*
X64044285Y-32214819D02*
X64044285Y-31214819D01*
X64044285Y-31214819D02*
X63568095Y-31214819D01*
X62853809Y-31691009D02*
X62710952Y-31738628D01*
X62710952Y-31738628D02*
X62663333Y-31786247D01*
X62663333Y-31786247D02*
X62615714Y-31881485D01*
X62615714Y-31881485D02*
X62615714Y-32024342D01*
X62615714Y-32024342D02*
X62663333Y-32119580D01*
X62663333Y-32119580D02*
X62710952Y-32167200D01*
X62710952Y-32167200D02*
X62806190Y-32214819D01*
X62806190Y-32214819D02*
X63187142Y-32214819D01*
X63187142Y-32214819D02*
X63187142Y-31214819D01*
X63187142Y-31214819D02*
X62853809Y-31214819D01*
X62853809Y-31214819D02*
X62758571Y-31262438D01*
X62758571Y-31262438D02*
X62710952Y-31310057D01*
X62710952Y-31310057D02*
X62663333Y-31405295D01*
X62663333Y-31405295D02*
X62663333Y-31500533D01*
X62663333Y-31500533D02*
X62710952Y-31595771D01*
X62710952Y-31595771D02*
X62758571Y-31643390D01*
X62758571Y-31643390D02*
X62853809Y-31691009D01*
X62853809Y-31691009D02*
X63187142Y-31691009D01*
X62187142Y-31833866D02*
X61425238Y-31833866D01*
X60377619Y-32119580D02*
X60425238Y-32167200D01*
X60425238Y-32167200D02*
X60568095Y-32214819D01*
X60568095Y-32214819D02*
X60663333Y-32214819D01*
X60663333Y-32214819D02*
X60806190Y-32167200D01*
X60806190Y-32167200D02*
X60901428Y-32071961D01*
X60901428Y-32071961D02*
X60949047Y-31976723D01*
X60949047Y-31976723D02*
X60996666Y-31786247D01*
X60996666Y-31786247D02*
X60996666Y-31643390D01*
X60996666Y-31643390D02*
X60949047Y-31452914D01*
X60949047Y-31452914D02*
X60901428Y-31357676D01*
X60901428Y-31357676D02*
X60806190Y-31262438D01*
X60806190Y-31262438D02*
X60663333Y-31214819D01*
X60663333Y-31214819D02*
X60568095Y-31214819D01*
X60568095Y-31214819D02*
X60425238Y-31262438D01*
X60425238Y-31262438D02*
X60377619Y-31310057D01*
X59996666Y-31929104D02*
X59520476Y-31929104D01*
X60091904Y-32214819D02*
X59758571Y-31214819D01*
X59758571Y-31214819D02*
X59425238Y-32214819D01*
X58568095Y-32214819D02*
X59139523Y-32214819D01*
X58853809Y-32214819D02*
X58853809Y-31214819D01*
X58853809Y-31214819D02*
X58949047Y-31357676D01*
X58949047Y-31357676D02*
X59044285Y-31452914D01*
X59044285Y-31452914D02*
X59139523Y-31500533D01*
X98710952Y-77191009D02*
X99044285Y-77191009D01*
X99044285Y-77714819D02*
X99044285Y-76714819D01*
X99044285Y-76714819D02*
X98568095Y-76714819D01*
X97853809Y-77191009D02*
X97710952Y-77238628D01*
X97710952Y-77238628D02*
X97663333Y-77286247D01*
X97663333Y-77286247D02*
X97615714Y-77381485D01*
X97615714Y-77381485D02*
X97615714Y-77524342D01*
X97615714Y-77524342D02*
X97663333Y-77619580D01*
X97663333Y-77619580D02*
X97710952Y-77667200D01*
X97710952Y-77667200D02*
X97806190Y-77714819D01*
X97806190Y-77714819D02*
X98187142Y-77714819D01*
X98187142Y-77714819D02*
X98187142Y-76714819D01*
X98187142Y-76714819D02*
X97853809Y-76714819D01*
X97853809Y-76714819D02*
X97758571Y-76762438D01*
X97758571Y-76762438D02*
X97710952Y-76810057D01*
X97710952Y-76810057D02*
X97663333Y-76905295D01*
X97663333Y-76905295D02*
X97663333Y-77000533D01*
X97663333Y-77000533D02*
X97710952Y-77095771D01*
X97710952Y-77095771D02*
X97758571Y-77143390D01*
X97758571Y-77143390D02*
X97853809Y-77191009D01*
X97853809Y-77191009D02*
X98187142Y-77191009D01*
X97187142Y-77333866D02*
X96425238Y-77333866D01*
X95996666Y-77429104D02*
X95520476Y-77429104D01*
X96091904Y-77714819D02*
X95758571Y-76714819D01*
X95758571Y-76714819D02*
X95425238Y-77714819D01*
X94520476Y-77619580D02*
X94568095Y-77667200D01*
X94568095Y-77667200D02*
X94710952Y-77714819D01*
X94710952Y-77714819D02*
X94806190Y-77714819D01*
X94806190Y-77714819D02*
X94949047Y-77667200D01*
X94949047Y-77667200D02*
X95044285Y-77571961D01*
X95044285Y-77571961D02*
X95091904Y-77476723D01*
X95091904Y-77476723D02*
X95139523Y-77286247D01*
X95139523Y-77286247D02*
X95139523Y-77143390D01*
X95139523Y-77143390D02*
X95091904Y-76952914D01*
X95091904Y-76952914D02*
X95044285Y-76857676D01*
X95044285Y-76857676D02*
X94949047Y-76762438D01*
X94949047Y-76762438D02*
X94806190Y-76714819D01*
X94806190Y-76714819D02*
X94710952Y-76714819D01*
X94710952Y-76714819D02*
X94568095Y-76762438D01*
X94568095Y-76762438D02*
X94520476Y-76810057D01*
X93568095Y-77714819D02*
X94139523Y-77714819D01*
X93853809Y-77714819D02*
X93853809Y-76714819D01*
X93853809Y-76714819D02*
X93949047Y-76857676D01*
X93949047Y-76857676D02*
X94044285Y-76952914D01*
X94044285Y-76952914D02*
X94139523Y-77000533D01*
X116520476Y-32214819D02*
X116520476Y-31214819D01*
X116520476Y-31214819D02*
X116282381Y-31214819D01*
X116282381Y-31214819D02*
X116139524Y-31262438D01*
X116139524Y-31262438D02*
X116044286Y-31357676D01*
X116044286Y-31357676D02*
X115996667Y-31452914D01*
X115996667Y-31452914D02*
X115949048Y-31643390D01*
X115949048Y-31643390D02*
X115949048Y-31786247D01*
X115949048Y-31786247D02*
X115996667Y-31976723D01*
X115996667Y-31976723D02*
X116044286Y-32071961D01*
X116044286Y-32071961D02*
X116139524Y-32167200D01*
X116139524Y-32167200D02*
X116282381Y-32214819D01*
X116282381Y-32214819D02*
X116520476Y-32214819D01*
X115139524Y-32167200D02*
X115234762Y-32214819D01*
X115234762Y-32214819D02*
X115425238Y-32214819D01*
X115425238Y-32214819D02*
X115520476Y-32167200D01*
X115520476Y-32167200D02*
X115568095Y-32071961D01*
X115568095Y-32071961D02*
X115568095Y-31691009D01*
X115568095Y-31691009D02*
X115520476Y-31595771D01*
X115520476Y-31595771D02*
X115425238Y-31548152D01*
X115425238Y-31548152D02*
X115234762Y-31548152D01*
X115234762Y-31548152D02*
X115139524Y-31595771D01*
X115139524Y-31595771D02*
X115091905Y-31691009D01*
X115091905Y-31691009D02*
X115091905Y-31786247D01*
X115091905Y-31786247D02*
X115568095Y-31881485D01*
X114520476Y-32214819D02*
X114615714Y-32167200D01*
X114615714Y-32167200D02*
X114663333Y-32071961D01*
X114663333Y-32071961D02*
X114663333Y-31214819D01*
X113710952Y-32214819D02*
X113710952Y-31691009D01*
X113710952Y-31691009D02*
X113758571Y-31595771D01*
X113758571Y-31595771D02*
X113853809Y-31548152D01*
X113853809Y-31548152D02*
X114044285Y-31548152D01*
X114044285Y-31548152D02*
X114139523Y-31595771D01*
X113710952Y-32167200D02*
X113806190Y-32214819D01*
X113806190Y-32214819D02*
X114044285Y-32214819D01*
X114044285Y-32214819D02*
X114139523Y-32167200D01*
X114139523Y-32167200D02*
X114187142Y-32071961D01*
X114187142Y-32071961D02*
X114187142Y-31976723D01*
X114187142Y-31976723D02*
X114139523Y-31881485D01*
X114139523Y-31881485D02*
X114044285Y-31833866D01*
X114044285Y-31833866D02*
X113806190Y-31833866D01*
X113806190Y-31833866D02*
X113710952Y-31786247D01*
X113329999Y-31548152D02*
X113091904Y-32214819D01*
X112853809Y-31548152D02*
X113091904Y-32214819D01*
X113091904Y-32214819D02*
X113187142Y-32452914D01*
X113187142Y-32452914D02*
X113234761Y-32500533D01*
X113234761Y-32500533D02*
X113329999Y-32548152D01*
X112520475Y-31929104D02*
X112044285Y-31929104D01*
X112615713Y-32214819D02*
X112282380Y-31214819D01*
X112282380Y-31214819D02*
X111949047Y-32214819D01*
X111091904Y-32214819D02*
X111663332Y-32214819D01*
X111377618Y-32214819D02*
X111377618Y-31214819D01*
X111377618Y-31214819D02*
X111472856Y-31357676D01*
X111472856Y-31357676D02*
X111568094Y-31452914D01*
X111568094Y-31452914D02*
X111663332Y-31500533D01*
X46282380Y-54441009D02*
X46615713Y-54441009D01*
X46615713Y-54964819D02*
X46615713Y-53964819D01*
X46615713Y-53964819D02*
X46139523Y-53964819D01*
X45425237Y-54441009D02*
X45282380Y-54488628D01*
X45282380Y-54488628D02*
X45234761Y-54536247D01*
X45234761Y-54536247D02*
X45187142Y-54631485D01*
X45187142Y-54631485D02*
X45187142Y-54774342D01*
X45187142Y-54774342D02*
X45234761Y-54869580D01*
X45234761Y-54869580D02*
X45282380Y-54917200D01*
X45282380Y-54917200D02*
X45377618Y-54964819D01*
X45377618Y-54964819D02*
X45758570Y-54964819D01*
X45758570Y-54964819D02*
X45758570Y-53964819D01*
X45758570Y-53964819D02*
X45425237Y-53964819D01*
X45425237Y-53964819D02*
X45329999Y-54012438D01*
X45329999Y-54012438D02*
X45282380Y-54060057D01*
X45282380Y-54060057D02*
X45234761Y-54155295D01*
X45234761Y-54155295D02*
X45234761Y-54250533D01*
X45234761Y-54250533D02*
X45282380Y-54345771D01*
X45282380Y-54345771D02*
X45329999Y-54393390D01*
X45329999Y-54393390D02*
X45425237Y-54441009D01*
X45425237Y-54441009D02*
X45758570Y-54441009D01*
X44758570Y-54583866D02*
X43996666Y-54583866D01*
X43520475Y-54964819D02*
X43520475Y-53964819D01*
X43520475Y-53964819D02*
X43282380Y-53964819D01*
X43282380Y-53964819D02*
X43139523Y-54012438D01*
X43139523Y-54012438D02*
X43044285Y-54107676D01*
X43044285Y-54107676D02*
X42996666Y-54202914D01*
X42996666Y-54202914D02*
X42949047Y-54393390D01*
X42949047Y-54393390D02*
X42949047Y-54536247D01*
X42949047Y-54536247D02*
X42996666Y-54726723D01*
X42996666Y-54726723D02*
X43044285Y-54821961D01*
X43044285Y-54821961D02*
X43139523Y-54917200D01*
X43139523Y-54917200D02*
X43282380Y-54964819D01*
X43282380Y-54964819D02*
X43520475Y-54964819D01*
X42187142Y-54441009D02*
X42044285Y-54488628D01*
X42044285Y-54488628D02*
X41996666Y-54536247D01*
X41996666Y-54536247D02*
X41949047Y-54631485D01*
X41949047Y-54631485D02*
X41949047Y-54774342D01*
X41949047Y-54774342D02*
X41996666Y-54869580D01*
X41996666Y-54869580D02*
X42044285Y-54917200D01*
X42044285Y-54917200D02*
X42139523Y-54964819D01*
X42139523Y-54964819D02*
X42520475Y-54964819D01*
X42520475Y-54964819D02*
X42520475Y-53964819D01*
X42520475Y-53964819D02*
X42187142Y-53964819D01*
X42187142Y-53964819D02*
X42091904Y-54012438D01*
X42091904Y-54012438D02*
X42044285Y-54060057D01*
X42044285Y-54060057D02*
X41996666Y-54155295D01*
X41996666Y-54155295D02*
X41996666Y-54250533D01*
X41996666Y-54250533D02*
X42044285Y-54345771D01*
X42044285Y-54345771D02*
X42091904Y-54393390D01*
X42091904Y-54393390D02*
X42187142Y-54441009D01*
X42187142Y-54441009D02*
X42520475Y-54441009D01*
X40996666Y-54964819D02*
X41568094Y-54964819D01*
X41282380Y-54964819D02*
X41282380Y-53964819D01*
X41282380Y-53964819D02*
X41377618Y-54107676D01*
X41377618Y-54107676D02*
X41472856Y-54202914D01*
X41472856Y-54202914D02*
X41568094Y-54250533D01*
X63282380Y-123214819D02*
X63282380Y-122214819D01*
X63282380Y-122214819D02*
X62949047Y-122929104D01*
X62949047Y-122929104D02*
X62615714Y-122214819D01*
X62615714Y-122214819D02*
X62615714Y-123214819D01*
X62139523Y-123214819D02*
X62139523Y-122548152D01*
X62139523Y-122214819D02*
X62187142Y-122262438D01*
X62187142Y-122262438D02*
X62139523Y-122310057D01*
X62139523Y-122310057D02*
X62091904Y-122262438D01*
X62091904Y-122262438D02*
X62139523Y-122214819D01*
X62139523Y-122214819D02*
X62139523Y-122310057D01*
X61758571Y-123214819D02*
X61234762Y-122548152D01*
X61758571Y-122548152D02*
X61234762Y-123214819D01*
X60282381Y-123119580D02*
X60330000Y-123167200D01*
X60330000Y-123167200D02*
X60472857Y-123214819D01*
X60472857Y-123214819D02*
X60568095Y-123214819D01*
X60568095Y-123214819D02*
X60710952Y-123167200D01*
X60710952Y-123167200D02*
X60806190Y-123071961D01*
X60806190Y-123071961D02*
X60853809Y-122976723D01*
X60853809Y-122976723D02*
X60901428Y-122786247D01*
X60901428Y-122786247D02*
X60901428Y-122643390D01*
X60901428Y-122643390D02*
X60853809Y-122452914D01*
X60853809Y-122452914D02*
X60806190Y-122357676D01*
X60806190Y-122357676D02*
X60710952Y-122262438D01*
X60710952Y-122262438D02*
X60568095Y-122214819D01*
X60568095Y-122214819D02*
X60472857Y-122214819D01*
X60472857Y-122214819D02*
X60330000Y-122262438D01*
X60330000Y-122262438D02*
X60282381Y-122310057D01*
X59330000Y-123214819D02*
X59901428Y-123214819D01*
X59615714Y-123214819D02*
X59615714Y-122214819D01*
X59615714Y-122214819D02*
X59710952Y-122357676D01*
X59710952Y-122357676D02*
X59806190Y-122452914D01*
X59806190Y-122452914D02*
X59901428Y-122500533D01*
X98639523Y-31691009D02*
X98972856Y-31691009D01*
X98972856Y-32214819D02*
X98972856Y-31214819D01*
X98972856Y-31214819D02*
X98496666Y-31214819D01*
X97782380Y-31691009D02*
X97639523Y-31738628D01*
X97639523Y-31738628D02*
X97591904Y-31786247D01*
X97591904Y-31786247D02*
X97544285Y-31881485D01*
X97544285Y-31881485D02*
X97544285Y-32024342D01*
X97544285Y-32024342D02*
X97591904Y-32119580D01*
X97591904Y-32119580D02*
X97639523Y-32167200D01*
X97639523Y-32167200D02*
X97734761Y-32214819D01*
X97734761Y-32214819D02*
X98115713Y-32214819D01*
X98115713Y-32214819D02*
X98115713Y-31214819D01*
X98115713Y-31214819D02*
X97782380Y-31214819D01*
X97782380Y-31214819D02*
X97687142Y-31262438D01*
X97687142Y-31262438D02*
X97639523Y-31310057D01*
X97639523Y-31310057D02*
X97591904Y-31405295D01*
X97591904Y-31405295D02*
X97591904Y-31500533D01*
X97591904Y-31500533D02*
X97639523Y-31595771D01*
X97639523Y-31595771D02*
X97687142Y-31643390D01*
X97687142Y-31643390D02*
X97782380Y-31691009D01*
X97782380Y-31691009D02*
X98115713Y-31691009D01*
X97115713Y-31833866D02*
X96353809Y-31833866D01*
X95925237Y-31929104D02*
X95449047Y-31929104D01*
X96020475Y-32214819D02*
X95687142Y-31214819D01*
X95687142Y-31214819D02*
X95353809Y-32214819D01*
X95068094Y-31929104D02*
X94591904Y-31929104D01*
X95163332Y-32214819D02*
X94829999Y-31214819D01*
X94829999Y-31214819D02*
X94496666Y-32214819D01*
X93639523Y-32214819D02*
X94210951Y-32214819D01*
X93925237Y-32214819D02*
X93925237Y-31214819D01*
X93925237Y-31214819D02*
X94020475Y-31357676D01*
X94020475Y-31357676D02*
X94115713Y-31452914D01*
X94115713Y-31452914D02*
X94210951Y-31500533D01*
X81210952Y-31691009D02*
X81544285Y-31691009D01*
X81544285Y-32214819D02*
X81544285Y-31214819D01*
X81544285Y-31214819D02*
X81068095Y-31214819D01*
X80353809Y-31691009D02*
X80210952Y-31738628D01*
X80210952Y-31738628D02*
X80163333Y-31786247D01*
X80163333Y-31786247D02*
X80115714Y-31881485D01*
X80115714Y-31881485D02*
X80115714Y-32024342D01*
X80115714Y-32024342D02*
X80163333Y-32119580D01*
X80163333Y-32119580D02*
X80210952Y-32167200D01*
X80210952Y-32167200D02*
X80306190Y-32214819D01*
X80306190Y-32214819D02*
X80687142Y-32214819D01*
X80687142Y-32214819D02*
X80687142Y-31214819D01*
X80687142Y-31214819D02*
X80353809Y-31214819D01*
X80353809Y-31214819D02*
X80258571Y-31262438D01*
X80258571Y-31262438D02*
X80210952Y-31310057D01*
X80210952Y-31310057D02*
X80163333Y-31405295D01*
X80163333Y-31405295D02*
X80163333Y-31500533D01*
X80163333Y-31500533D02*
X80210952Y-31595771D01*
X80210952Y-31595771D02*
X80258571Y-31643390D01*
X80258571Y-31643390D02*
X80353809Y-31691009D01*
X80353809Y-31691009D02*
X80687142Y-31691009D01*
X79687142Y-31833866D02*
X78925238Y-31833866D01*
X78115714Y-31691009D02*
X77972857Y-31738628D01*
X77972857Y-31738628D02*
X77925238Y-31786247D01*
X77925238Y-31786247D02*
X77877619Y-31881485D01*
X77877619Y-31881485D02*
X77877619Y-32024342D01*
X77877619Y-32024342D02*
X77925238Y-32119580D01*
X77925238Y-32119580D02*
X77972857Y-32167200D01*
X77972857Y-32167200D02*
X78068095Y-32214819D01*
X78068095Y-32214819D02*
X78449047Y-32214819D01*
X78449047Y-32214819D02*
X78449047Y-31214819D01*
X78449047Y-31214819D02*
X78115714Y-31214819D01*
X78115714Y-31214819D02*
X78020476Y-31262438D01*
X78020476Y-31262438D02*
X77972857Y-31310057D01*
X77972857Y-31310057D02*
X77925238Y-31405295D01*
X77925238Y-31405295D02*
X77925238Y-31500533D01*
X77925238Y-31500533D02*
X77972857Y-31595771D01*
X77972857Y-31595771D02*
X78020476Y-31643390D01*
X78020476Y-31643390D02*
X78115714Y-31691009D01*
X78115714Y-31691009D02*
X78449047Y-31691009D01*
X77496666Y-31929104D02*
X77020476Y-31929104D01*
X77591904Y-32214819D02*
X77258571Y-31214819D01*
X77258571Y-31214819D02*
X76925238Y-32214819D01*
X76068095Y-32214819D02*
X76639523Y-32214819D01*
X76353809Y-32214819D02*
X76353809Y-31214819D01*
X76353809Y-31214819D02*
X76449047Y-31357676D01*
X76449047Y-31357676D02*
X76544285Y-31452914D01*
X76544285Y-31452914D02*
X76639523Y-31500533D01*
X149687142Y-54964819D02*
X149687142Y-53964819D01*
X149687142Y-53964819D02*
X149449047Y-53964819D01*
X149449047Y-53964819D02*
X149306190Y-54012438D01*
X149306190Y-54012438D02*
X149210952Y-54107676D01*
X149210952Y-54107676D02*
X149163333Y-54202914D01*
X149163333Y-54202914D02*
X149115714Y-54393390D01*
X149115714Y-54393390D02*
X149115714Y-54536247D01*
X149115714Y-54536247D02*
X149163333Y-54726723D01*
X149163333Y-54726723D02*
X149210952Y-54821961D01*
X149210952Y-54821961D02*
X149306190Y-54917200D01*
X149306190Y-54917200D02*
X149449047Y-54964819D01*
X149449047Y-54964819D02*
X149687142Y-54964819D01*
X148306190Y-54917200D02*
X148401428Y-54964819D01*
X148401428Y-54964819D02*
X148591904Y-54964819D01*
X148591904Y-54964819D02*
X148687142Y-54917200D01*
X148687142Y-54917200D02*
X148734761Y-54821961D01*
X148734761Y-54821961D02*
X148734761Y-54441009D01*
X148734761Y-54441009D02*
X148687142Y-54345771D01*
X148687142Y-54345771D02*
X148591904Y-54298152D01*
X148591904Y-54298152D02*
X148401428Y-54298152D01*
X148401428Y-54298152D02*
X148306190Y-54345771D01*
X148306190Y-54345771D02*
X148258571Y-54441009D01*
X148258571Y-54441009D02*
X148258571Y-54536247D01*
X148258571Y-54536247D02*
X148734761Y-54631485D01*
X147829999Y-54298152D02*
X147829999Y-55298152D01*
X147829999Y-54345771D02*
X147734761Y-54298152D01*
X147734761Y-54298152D02*
X147544285Y-54298152D01*
X147544285Y-54298152D02*
X147449047Y-54345771D01*
X147449047Y-54345771D02*
X147401428Y-54393390D01*
X147401428Y-54393390D02*
X147353809Y-54488628D01*
X147353809Y-54488628D02*
X147353809Y-54774342D01*
X147353809Y-54774342D02*
X147401428Y-54869580D01*
X147401428Y-54869580D02*
X147449047Y-54917200D01*
X147449047Y-54917200D02*
X147544285Y-54964819D01*
X147544285Y-54964819D02*
X147734761Y-54964819D01*
X147734761Y-54964819D02*
X147829999Y-54917200D01*
X147068094Y-54298152D02*
X146687142Y-54298152D01*
X146925237Y-53964819D02*
X146925237Y-54821961D01*
X146925237Y-54821961D02*
X146877618Y-54917200D01*
X146877618Y-54917200D02*
X146782380Y-54964819D01*
X146782380Y-54964819D02*
X146687142Y-54964819D01*
X146353808Y-54964819D02*
X146353808Y-53964819D01*
X145925237Y-54964819D02*
X145925237Y-54441009D01*
X145925237Y-54441009D02*
X145972856Y-54345771D01*
X145972856Y-54345771D02*
X146068094Y-54298152D01*
X146068094Y-54298152D02*
X146210951Y-54298152D01*
X146210951Y-54298152D02*
X146306189Y-54345771D01*
X146306189Y-54345771D02*
X146353808Y-54393390D01*
X145115713Y-54441009D02*
X144972856Y-54488628D01*
X144972856Y-54488628D02*
X144925237Y-54536247D01*
X144925237Y-54536247D02*
X144877618Y-54631485D01*
X144877618Y-54631485D02*
X144877618Y-54774342D01*
X144877618Y-54774342D02*
X144925237Y-54869580D01*
X144925237Y-54869580D02*
X144972856Y-54917200D01*
X144972856Y-54917200D02*
X145068094Y-54964819D01*
X145068094Y-54964819D02*
X145449046Y-54964819D01*
X145449046Y-54964819D02*
X145449046Y-53964819D01*
X145449046Y-53964819D02*
X145115713Y-53964819D01*
X145115713Y-53964819D02*
X145020475Y-54012438D01*
X145020475Y-54012438D02*
X144972856Y-54060057D01*
X144972856Y-54060057D02*
X144925237Y-54155295D01*
X144925237Y-54155295D02*
X144925237Y-54250533D01*
X144925237Y-54250533D02*
X144972856Y-54345771D01*
X144972856Y-54345771D02*
X145020475Y-54393390D01*
X145020475Y-54393390D02*
X145115713Y-54441009D01*
X145115713Y-54441009D02*
X145449046Y-54441009D01*
X143925237Y-54964819D02*
X144496665Y-54964819D01*
X144210951Y-54964819D02*
X144210951Y-53964819D01*
X144210951Y-53964819D02*
X144306189Y-54107676D01*
X144306189Y-54107676D02*
X144401427Y-54202914D01*
X144401427Y-54202914D02*
X144496665Y-54250533D01*
X167353809Y-77667200D02*
X167210952Y-77714819D01*
X167210952Y-77714819D02*
X166972857Y-77714819D01*
X166972857Y-77714819D02*
X166877619Y-77667200D01*
X166877619Y-77667200D02*
X166830000Y-77619580D01*
X166830000Y-77619580D02*
X166782381Y-77524342D01*
X166782381Y-77524342D02*
X166782381Y-77429104D01*
X166782381Y-77429104D02*
X166830000Y-77333866D01*
X166830000Y-77333866D02*
X166877619Y-77286247D01*
X166877619Y-77286247D02*
X166972857Y-77238628D01*
X166972857Y-77238628D02*
X167163333Y-77191009D01*
X167163333Y-77191009D02*
X167258571Y-77143390D01*
X167258571Y-77143390D02*
X167306190Y-77095771D01*
X167306190Y-77095771D02*
X167353809Y-77000533D01*
X167353809Y-77000533D02*
X167353809Y-76905295D01*
X167353809Y-76905295D02*
X167306190Y-76810057D01*
X167306190Y-76810057D02*
X167258571Y-76762438D01*
X167258571Y-76762438D02*
X167163333Y-76714819D01*
X167163333Y-76714819D02*
X166925238Y-76714819D01*
X166925238Y-76714819D02*
X166782381Y-76762438D01*
X166353809Y-77048152D02*
X166353809Y-78048152D01*
X166353809Y-77095771D02*
X166258571Y-77048152D01*
X166258571Y-77048152D02*
X166068095Y-77048152D01*
X166068095Y-77048152D02*
X165972857Y-77095771D01*
X165972857Y-77095771D02*
X165925238Y-77143390D01*
X165925238Y-77143390D02*
X165877619Y-77238628D01*
X165877619Y-77238628D02*
X165877619Y-77524342D01*
X165877619Y-77524342D02*
X165925238Y-77619580D01*
X165925238Y-77619580D02*
X165972857Y-77667200D01*
X165972857Y-77667200D02*
X166068095Y-77714819D01*
X166068095Y-77714819D02*
X166258571Y-77714819D01*
X166258571Y-77714819D02*
X166353809Y-77667200D01*
X165068095Y-77667200D02*
X165163333Y-77714819D01*
X165163333Y-77714819D02*
X165353809Y-77714819D01*
X165353809Y-77714819D02*
X165449047Y-77667200D01*
X165449047Y-77667200D02*
X165496666Y-77571961D01*
X165496666Y-77571961D02*
X165496666Y-77191009D01*
X165496666Y-77191009D02*
X165449047Y-77095771D01*
X165449047Y-77095771D02*
X165353809Y-77048152D01*
X165353809Y-77048152D02*
X165163333Y-77048152D01*
X165163333Y-77048152D02*
X165068095Y-77095771D01*
X165068095Y-77095771D02*
X165020476Y-77191009D01*
X165020476Y-77191009D02*
X165020476Y-77286247D01*
X165020476Y-77286247D02*
X165496666Y-77381485D01*
X164210952Y-77667200D02*
X164306190Y-77714819D01*
X164306190Y-77714819D02*
X164496666Y-77714819D01*
X164496666Y-77714819D02*
X164591904Y-77667200D01*
X164591904Y-77667200D02*
X164639523Y-77571961D01*
X164639523Y-77571961D02*
X164639523Y-77191009D01*
X164639523Y-77191009D02*
X164591904Y-77095771D01*
X164591904Y-77095771D02*
X164496666Y-77048152D01*
X164496666Y-77048152D02*
X164306190Y-77048152D01*
X164306190Y-77048152D02*
X164210952Y-77095771D01*
X164210952Y-77095771D02*
X164163333Y-77191009D01*
X164163333Y-77191009D02*
X164163333Y-77286247D01*
X164163333Y-77286247D02*
X164639523Y-77381485D01*
X163306190Y-77714819D02*
X163306190Y-76714819D01*
X163306190Y-77667200D02*
X163401428Y-77714819D01*
X163401428Y-77714819D02*
X163591904Y-77714819D01*
X163591904Y-77714819D02*
X163687142Y-77667200D01*
X163687142Y-77667200D02*
X163734761Y-77619580D01*
X163734761Y-77619580D02*
X163782380Y-77524342D01*
X163782380Y-77524342D02*
X163782380Y-77238628D01*
X163782380Y-77238628D02*
X163734761Y-77143390D01*
X163734761Y-77143390D02*
X163687142Y-77095771D01*
X163687142Y-77095771D02*
X163591904Y-77048152D01*
X163591904Y-77048152D02*
X163401428Y-77048152D01*
X163401428Y-77048152D02*
X163306190Y-77095771D01*
X162258571Y-77619580D02*
X162306190Y-77667200D01*
X162306190Y-77667200D02*
X162449047Y-77714819D01*
X162449047Y-77714819D02*
X162544285Y-77714819D01*
X162544285Y-77714819D02*
X162687142Y-77667200D01*
X162687142Y-77667200D02*
X162782380Y-77571961D01*
X162782380Y-77571961D02*
X162829999Y-77476723D01*
X162829999Y-77476723D02*
X162877618Y-77286247D01*
X162877618Y-77286247D02*
X162877618Y-77143390D01*
X162877618Y-77143390D02*
X162829999Y-76952914D01*
X162829999Y-76952914D02*
X162782380Y-76857676D01*
X162782380Y-76857676D02*
X162687142Y-76762438D01*
X162687142Y-76762438D02*
X162544285Y-76714819D01*
X162544285Y-76714819D02*
X162449047Y-76714819D01*
X162449047Y-76714819D02*
X162306190Y-76762438D01*
X162306190Y-76762438D02*
X162258571Y-76810057D01*
X161306190Y-77714819D02*
X161877618Y-77714819D01*
X161591904Y-77714819D02*
X161591904Y-76714819D01*
X161591904Y-76714819D02*
X161687142Y-76857676D01*
X161687142Y-76857676D02*
X161782380Y-76952914D01*
X161782380Y-76952914D02*
X161877618Y-77000533D01*
X149687142Y-77714819D02*
X149687142Y-76714819D01*
X149687142Y-76714819D02*
X149449047Y-76714819D01*
X149449047Y-76714819D02*
X149306190Y-76762438D01*
X149306190Y-76762438D02*
X149210952Y-76857676D01*
X149210952Y-76857676D02*
X149163333Y-76952914D01*
X149163333Y-76952914D02*
X149115714Y-77143390D01*
X149115714Y-77143390D02*
X149115714Y-77286247D01*
X149115714Y-77286247D02*
X149163333Y-77476723D01*
X149163333Y-77476723D02*
X149210952Y-77571961D01*
X149210952Y-77571961D02*
X149306190Y-77667200D01*
X149306190Y-77667200D02*
X149449047Y-77714819D01*
X149449047Y-77714819D02*
X149687142Y-77714819D01*
X148306190Y-77667200D02*
X148401428Y-77714819D01*
X148401428Y-77714819D02*
X148591904Y-77714819D01*
X148591904Y-77714819D02*
X148687142Y-77667200D01*
X148687142Y-77667200D02*
X148734761Y-77571961D01*
X148734761Y-77571961D02*
X148734761Y-77191009D01*
X148734761Y-77191009D02*
X148687142Y-77095771D01*
X148687142Y-77095771D02*
X148591904Y-77048152D01*
X148591904Y-77048152D02*
X148401428Y-77048152D01*
X148401428Y-77048152D02*
X148306190Y-77095771D01*
X148306190Y-77095771D02*
X148258571Y-77191009D01*
X148258571Y-77191009D02*
X148258571Y-77286247D01*
X148258571Y-77286247D02*
X148734761Y-77381485D01*
X147829999Y-77048152D02*
X147829999Y-78048152D01*
X147829999Y-77095771D02*
X147734761Y-77048152D01*
X147734761Y-77048152D02*
X147544285Y-77048152D01*
X147544285Y-77048152D02*
X147449047Y-77095771D01*
X147449047Y-77095771D02*
X147401428Y-77143390D01*
X147401428Y-77143390D02*
X147353809Y-77238628D01*
X147353809Y-77238628D02*
X147353809Y-77524342D01*
X147353809Y-77524342D02*
X147401428Y-77619580D01*
X147401428Y-77619580D02*
X147449047Y-77667200D01*
X147449047Y-77667200D02*
X147544285Y-77714819D01*
X147544285Y-77714819D02*
X147734761Y-77714819D01*
X147734761Y-77714819D02*
X147829999Y-77667200D01*
X147068094Y-77048152D02*
X146687142Y-77048152D01*
X146925237Y-76714819D02*
X146925237Y-77571961D01*
X146925237Y-77571961D02*
X146877618Y-77667200D01*
X146877618Y-77667200D02*
X146782380Y-77714819D01*
X146782380Y-77714819D02*
X146687142Y-77714819D01*
X146353808Y-77714819D02*
X146353808Y-76714819D01*
X145925237Y-77714819D02*
X145925237Y-77191009D01*
X145925237Y-77191009D02*
X145972856Y-77095771D01*
X145972856Y-77095771D02*
X146068094Y-77048152D01*
X146068094Y-77048152D02*
X146210951Y-77048152D01*
X146210951Y-77048152D02*
X146306189Y-77095771D01*
X146306189Y-77095771D02*
X146353808Y-77143390D01*
X144877618Y-77619580D02*
X144925237Y-77667200D01*
X144925237Y-77667200D02*
X145068094Y-77714819D01*
X145068094Y-77714819D02*
X145163332Y-77714819D01*
X145163332Y-77714819D02*
X145306189Y-77667200D01*
X145306189Y-77667200D02*
X145401427Y-77571961D01*
X145401427Y-77571961D02*
X145449046Y-77476723D01*
X145449046Y-77476723D02*
X145496665Y-77286247D01*
X145496665Y-77286247D02*
X145496665Y-77143390D01*
X145496665Y-77143390D02*
X145449046Y-76952914D01*
X145449046Y-76952914D02*
X145401427Y-76857676D01*
X145401427Y-76857676D02*
X145306189Y-76762438D01*
X145306189Y-76762438D02*
X145163332Y-76714819D01*
X145163332Y-76714819D02*
X145068094Y-76714819D01*
X145068094Y-76714819D02*
X144925237Y-76762438D01*
X144925237Y-76762438D02*
X144877618Y-76810057D01*
X143925237Y-77714819D02*
X144496665Y-77714819D01*
X144210951Y-77714819D02*
X144210951Y-76714819D01*
X144210951Y-76714819D02*
X144306189Y-76857676D01*
X144306189Y-76857676D02*
X144401427Y-76952914D01*
X144401427Y-76952914D02*
X144496665Y-77000533D01*
X46210952Y-31691009D02*
X46544285Y-31691009D01*
X46544285Y-32214819D02*
X46544285Y-31214819D01*
X46544285Y-31214819D02*
X46068095Y-31214819D01*
X45353809Y-31691009D02*
X45210952Y-31738628D01*
X45210952Y-31738628D02*
X45163333Y-31786247D01*
X45163333Y-31786247D02*
X45115714Y-31881485D01*
X45115714Y-31881485D02*
X45115714Y-32024342D01*
X45115714Y-32024342D02*
X45163333Y-32119580D01*
X45163333Y-32119580D02*
X45210952Y-32167200D01*
X45210952Y-32167200D02*
X45306190Y-32214819D01*
X45306190Y-32214819D02*
X45687142Y-32214819D01*
X45687142Y-32214819D02*
X45687142Y-31214819D01*
X45687142Y-31214819D02*
X45353809Y-31214819D01*
X45353809Y-31214819D02*
X45258571Y-31262438D01*
X45258571Y-31262438D02*
X45210952Y-31310057D01*
X45210952Y-31310057D02*
X45163333Y-31405295D01*
X45163333Y-31405295D02*
X45163333Y-31500533D01*
X45163333Y-31500533D02*
X45210952Y-31595771D01*
X45210952Y-31595771D02*
X45258571Y-31643390D01*
X45258571Y-31643390D02*
X45353809Y-31691009D01*
X45353809Y-31691009D02*
X45687142Y-31691009D01*
X44687142Y-31833866D02*
X43925238Y-31833866D01*
X43449047Y-32214819D02*
X43449047Y-31214819D01*
X43449047Y-31214819D02*
X43210952Y-31214819D01*
X43210952Y-31214819D02*
X43068095Y-31262438D01*
X43068095Y-31262438D02*
X42972857Y-31357676D01*
X42972857Y-31357676D02*
X42925238Y-31452914D01*
X42925238Y-31452914D02*
X42877619Y-31643390D01*
X42877619Y-31643390D02*
X42877619Y-31786247D01*
X42877619Y-31786247D02*
X42925238Y-31976723D01*
X42925238Y-31976723D02*
X42972857Y-32071961D01*
X42972857Y-32071961D02*
X43068095Y-32167200D01*
X43068095Y-32167200D02*
X43210952Y-32214819D01*
X43210952Y-32214819D02*
X43449047Y-32214819D01*
X42496666Y-31929104D02*
X42020476Y-31929104D01*
X42591904Y-32214819D02*
X42258571Y-31214819D01*
X42258571Y-31214819D02*
X41925238Y-32214819D01*
X41068095Y-32214819D02*
X41639523Y-32214819D01*
X41353809Y-32214819D02*
X41353809Y-31214819D01*
X41353809Y-31214819D02*
X41449047Y-31357676D01*
X41449047Y-31357676D02*
X41544285Y-31452914D01*
X41544285Y-31452914D02*
X41639523Y-31500533D01*
X116591904Y-54964819D02*
X116591904Y-53964819D01*
X116591904Y-53964819D02*
X116353809Y-53964819D01*
X116353809Y-53964819D02*
X116210952Y-54012438D01*
X116210952Y-54012438D02*
X116115714Y-54107676D01*
X116115714Y-54107676D02*
X116068095Y-54202914D01*
X116068095Y-54202914D02*
X116020476Y-54393390D01*
X116020476Y-54393390D02*
X116020476Y-54536247D01*
X116020476Y-54536247D02*
X116068095Y-54726723D01*
X116068095Y-54726723D02*
X116115714Y-54821961D01*
X116115714Y-54821961D02*
X116210952Y-54917200D01*
X116210952Y-54917200D02*
X116353809Y-54964819D01*
X116353809Y-54964819D02*
X116591904Y-54964819D01*
X115210952Y-54917200D02*
X115306190Y-54964819D01*
X115306190Y-54964819D02*
X115496666Y-54964819D01*
X115496666Y-54964819D02*
X115591904Y-54917200D01*
X115591904Y-54917200D02*
X115639523Y-54821961D01*
X115639523Y-54821961D02*
X115639523Y-54441009D01*
X115639523Y-54441009D02*
X115591904Y-54345771D01*
X115591904Y-54345771D02*
X115496666Y-54298152D01*
X115496666Y-54298152D02*
X115306190Y-54298152D01*
X115306190Y-54298152D02*
X115210952Y-54345771D01*
X115210952Y-54345771D02*
X115163333Y-54441009D01*
X115163333Y-54441009D02*
X115163333Y-54536247D01*
X115163333Y-54536247D02*
X115639523Y-54631485D01*
X114591904Y-54964819D02*
X114687142Y-54917200D01*
X114687142Y-54917200D02*
X114734761Y-54821961D01*
X114734761Y-54821961D02*
X114734761Y-53964819D01*
X113782380Y-54964819D02*
X113782380Y-54441009D01*
X113782380Y-54441009D02*
X113829999Y-54345771D01*
X113829999Y-54345771D02*
X113925237Y-54298152D01*
X113925237Y-54298152D02*
X114115713Y-54298152D01*
X114115713Y-54298152D02*
X114210951Y-54345771D01*
X113782380Y-54917200D02*
X113877618Y-54964819D01*
X113877618Y-54964819D02*
X114115713Y-54964819D01*
X114115713Y-54964819D02*
X114210951Y-54917200D01*
X114210951Y-54917200D02*
X114258570Y-54821961D01*
X114258570Y-54821961D02*
X114258570Y-54726723D01*
X114258570Y-54726723D02*
X114210951Y-54631485D01*
X114210951Y-54631485D02*
X114115713Y-54583866D01*
X114115713Y-54583866D02*
X113877618Y-54583866D01*
X113877618Y-54583866D02*
X113782380Y-54536247D01*
X113401427Y-54298152D02*
X113163332Y-54964819D01*
X112925237Y-54298152D02*
X113163332Y-54964819D01*
X113163332Y-54964819D02*
X113258570Y-55202914D01*
X113258570Y-55202914D02*
X113306189Y-55250533D01*
X113306189Y-55250533D02*
X113401427Y-55298152D01*
X112210951Y-54441009D02*
X112068094Y-54488628D01*
X112068094Y-54488628D02*
X112020475Y-54536247D01*
X112020475Y-54536247D02*
X111972856Y-54631485D01*
X111972856Y-54631485D02*
X111972856Y-54774342D01*
X111972856Y-54774342D02*
X112020475Y-54869580D01*
X112020475Y-54869580D02*
X112068094Y-54917200D01*
X112068094Y-54917200D02*
X112163332Y-54964819D01*
X112163332Y-54964819D02*
X112544284Y-54964819D01*
X112544284Y-54964819D02*
X112544284Y-53964819D01*
X112544284Y-53964819D02*
X112210951Y-53964819D01*
X112210951Y-53964819D02*
X112115713Y-54012438D01*
X112115713Y-54012438D02*
X112068094Y-54060057D01*
X112068094Y-54060057D02*
X112020475Y-54155295D01*
X112020475Y-54155295D02*
X112020475Y-54250533D01*
X112020475Y-54250533D02*
X112068094Y-54345771D01*
X112068094Y-54345771D02*
X112115713Y-54393390D01*
X112115713Y-54393390D02*
X112210951Y-54441009D01*
X112210951Y-54441009D02*
X112544284Y-54441009D01*
X111020475Y-54964819D02*
X111591903Y-54964819D01*
X111306189Y-54964819D02*
X111306189Y-53964819D01*
X111306189Y-53964819D02*
X111401427Y-54107676D01*
X111401427Y-54107676D02*
X111496665Y-54202914D01*
X111496665Y-54202914D02*
X111591903Y-54250533D01*
X80782380Y-123214819D02*
X80782380Y-122214819D01*
X80782380Y-122214819D02*
X80449047Y-122929104D01*
X80449047Y-122929104D02*
X80115714Y-122214819D01*
X80115714Y-122214819D02*
X80115714Y-123214819D01*
X79639523Y-123214819D02*
X79639523Y-122548152D01*
X79639523Y-122214819D02*
X79687142Y-122262438D01*
X79687142Y-122262438D02*
X79639523Y-122310057D01*
X79639523Y-122310057D02*
X79591904Y-122262438D01*
X79591904Y-122262438D02*
X79639523Y-122214819D01*
X79639523Y-122214819D02*
X79639523Y-122310057D01*
X79258571Y-123214819D02*
X78734762Y-122548152D01*
X79258571Y-122548152D02*
X78734762Y-123214819D01*
X78020476Y-122691009D02*
X77877619Y-122738628D01*
X77877619Y-122738628D02*
X77830000Y-122786247D01*
X77830000Y-122786247D02*
X77782381Y-122881485D01*
X77782381Y-122881485D02*
X77782381Y-123024342D01*
X77782381Y-123024342D02*
X77830000Y-123119580D01*
X77830000Y-123119580D02*
X77877619Y-123167200D01*
X77877619Y-123167200D02*
X77972857Y-123214819D01*
X77972857Y-123214819D02*
X78353809Y-123214819D01*
X78353809Y-123214819D02*
X78353809Y-122214819D01*
X78353809Y-122214819D02*
X78020476Y-122214819D01*
X78020476Y-122214819D02*
X77925238Y-122262438D01*
X77925238Y-122262438D02*
X77877619Y-122310057D01*
X77877619Y-122310057D02*
X77830000Y-122405295D01*
X77830000Y-122405295D02*
X77830000Y-122500533D01*
X77830000Y-122500533D02*
X77877619Y-122595771D01*
X77877619Y-122595771D02*
X77925238Y-122643390D01*
X77925238Y-122643390D02*
X78020476Y-122691009D01*
X78020476Y-122691009D02*
X78353809Y-122691009D01*
X76830000Y-123214819D02*
X77401428Y-123214819D01*
X77115714Y-123214819D02*
X77115714Y-122214819D01*
X77115714Y-122214819D02*
X77210952Y-122357676D01*
X77210952Y-122357676D02*
X77306190Y-122452914D01*
X77306190Y-122452914D02*
X77401428Y-122500533D01*
X149687142Y-100464819D02*
X149687142Y-99464819D01*
X149687142Y-99464819D02*
X149449047Y-99464819D01*
X149449047Y-99464819D02*
X149306190Y-99512438D01*
X149306190Y-99512438D02*
X149210952Y-99607676D01*
X149210952Y-99607676D02*
X149163333Y-99702914D01*
X149163333Y-99702914D02*
X149115714Y-99893390D01*
X149115714Y-99893390D02*
X149115714Y-100036247D01*
X149115714Y-100036247D02*
X149163333Y-100226723D01*
X149163333Y-100226723D02*
X149210952Y-100321961D01*
X149210952Y-100321961D02*
X149306190Y-100417200D01*
X149306190Y-100417200D02*
X149449047Y-100464819D01*
X149449047Y-100464819D02*
X149687142Y-100464819D01*
X148306190Y-100417200D02*
X148401428Y-100464819D01*
X148401428Y-100464819D02*
X148591904Y-100464819D01*
X148591904Y-100464819D02*
X148687142Y-100417200D01*
X148687142Y-100417200D02*
X148734761Y-100321961D01*
X148734761Y-100321961D02*
X148734761Y-99941009D01*
X148734761Y-99941009D02*
X148687142Y-99845771D01*
X148687142Y-99845771D02*
X148591904Y-99798152D01*
X148591904Y-99798152D02*
X148401428Y-99798152D01*
X148401428Y-99798152D02*
X148306190Y-99845771D01*
X148306190Y-99845771D02*
X148258571Y-99941009D01*
X148258571Y-99941009D02*
X148258571Y-100036247D01*
X148258571Y-100036247D02*
X148734761Y-100131485D01*
X147829999Y-99798152D02*
X147829999Y-100798152D01*
X147829999Y-99845771D02*
X147734761Y-99798152D01*
X147734761Y-99798152D02*
X147544285Y-99798152D01*
X147544285Y-99798152D02*
X147449047Y-99845771D01*
X147449047Y-99845771D02*
X147401428Y-99893390D01*
X147401428Y-99893390D02*
X147353809Y-99988628D01*
X147353809Y-99988628D02*
X147353809Y-100274342D01*
X147353809Y-100274342D02*
X147401428Y-100369580D01*
X147401428Y-100369580D02*
X147449047Y-100417200D01*
X147449047Y-100417200D02*
X147544285Y-100464819D01*
X147544285Y-100464819D02*
X147734761Y-100464819D01*
X147734761Y-100464819D02*
X147829999Y-100417200D01*
X147068094Y-99798152D02*
X146687142Y-99798152D01*
X146925237Y-99464819D02*
X146925237Y-100321961D01*
X146925237Y-100321961D02*
X146877618Y-100417200D01*
X146877618Y-100417200D02*
X146782380Y-100464819D01*
X146782380Y-100464819D02*
X146687142Y-100464819D01*
X146353808Y-100464819D02*
X146353808Y-99464819D01*
X145925237Y-100464819D02*
X145925237Y-99941009D01*
X145925237Y-99941009D02*
X145972856Y-99845771D01*
X145972856Y-99845771D02*
X146068094Y-99798152D01*
X146068094Y-99798152D02*
X146210951Y-99798152D01*
X146210951Y-99798152D02*
X146306189Y-99845771D01*
X146306189Y-99845771D02*
X146353808Y-99893390D01*
X145449046Y-100464819D02*
X145449046Y-99464819D01*
X145449046Y-99464819D02*
X145210951Y-99464819D01*
X145210951Y-99464819D02*
X145068094Y-99512438D01*
X145068094Y-99512438D02*
X144972856Y-99607676D01*
X144972856Y-99607676D02*
X144925237Y-99702914D01*
X144925237Y-99702914D02*
X144877618Y-99893390D01*
X144877618Y-99893390D02*
X144877618Y-100036247D01*
X144877618Y-100036247D02*
X144925237Y-100226723D01*
X144925237Y-100226723D02*
X144972856Y-100321961D01*
X144972856Y-100321961D02*
X145068094Y-100417200D01*
X145068094Y-100417200D02*
X145210951Y-100464819D01*
X145210951Y-100464819D02*
X145449046Y-100464819D01*
X143925237Y-100464819D02*
X144496665Y-100464819D01*
X144210951Y-100464819D02*
X144210951Y-99464819D01*
X144210951Y-99464819D02*
X144306189Y-99607676D01*
X144306189Y-99607676D02*
X144401427Y-99702914D01*
X144401427Y-99702914D02*
X144496665Y-99750533D01*
X81282380Y-77191009D02*
X81615713Y-77191009D01*
X81615713Y-77714819D02*
X81615713Y-76714819D01*
X81615713Y-76714819D02*
X81139523Y-76714819D01*
X80425237Y-77191009D02*
X80282380Y-77238628D01*
X80282380Y-77238628D02*
X80234761Y-77286247D01*
X80234761Y-77286247D02*
X80187142Y-77381485D01*
X80187142Y-77381485D02*
X80187142Y-77524342D01*
X80187142Y-77524342D02*
X80234761Y-77619580D01*
X80234761Y-77619580D02*
X80282380Y-77667200D01*
X80282380Y-77667200D02*
X80377618Y-77714819D01*
X80377618Y-77714819D02*
X80758570Y-77714819D01*
X80758570Y-77714819D02*
X80758570Y-76714819D01*
X80758570Y-76714819D02*
X80425237Y-76714819D01*
X80425237Y-76714819D02*
X80329999Y-76762438D01*
X80329999Y-76762438D02*
X80282380Y-76810057D01*
X80282380Y-76810057D02*
X80234761Y-76905295D01*
X80234761Y-76905295D02*
X80234761Y-77000533D01*
X80234761Y-77000533D02*
X80282380Y-77095771D01*
X80282380Y-77095771D02*
X80329999Y-77143390D01*
X80329999Y-77143390D02*
X80425237Y-77191009D01*
X80425237Y-77191009D02*
X80758570Y-77191009D01*
X79758570Y-77333866D02*
X78996666Y-77333866D01*
X78187142Y-77191009D02*
X78044285Y-77238628D01*
X78044285Y-77238628D02*
X77996666Y-77286247D01*
X77996666Y-77286247D02*
X77949047Y-77381485D01*
X77949047Y-77381485D02*
X77949047Y-77524342D01*
X77949047Y-77524342D02*
X77996666Y-77619580D01*
X77996666Y-77619580D02*
X78044285Y-77667200D01*
X78044285Y-77667200D02*
X78139523Y-77714819D01*
X78139523Y-77714819D02*
X78520475Y-77714819D01*
X78520475Y-77714819D02*
X78520475Y-76714819D01*
X78520475Y-76714819D02*
X78187142Y-76714819D01*
X78187142Y-76714819D02*
X78091904Y-76762438D01*
X78091904Y-76762438D02*
X78044285Y-76810057D01*
X78044285Y-76810057D02*
X77996666Y-76905295D01*
X77996666Y-76905295D02*
X77996666Y-77000533D01*
X77996666Y-77000533D02*
X78044285Y-77095771D01*
X78044285Y-77095771D02*
X78091904Y-77143390D01*
X78091904Y-77143390D02*
X78187142Y-77191009D01*
X78187142Y-77191009D02*
X78520475Y-77191009D01*
X76949047Y-77619580D02*
X76996666Y-77667200D01*
X76996666Y-77667200D02*
X77139523Y-77714819D01*
X77139523Y-77714819D02*
X77234761Y-77714819D01*
X77234761Y-77714819D02*
X77377618Y-77667200D01*
X77377618Y-77667200D02*
X77472856Y-77571961D01*
X77472856Y-77571961D02*
X77520475Y-77476723D01*
X77520475Y-77476723D02*
X77568094Y-77286247D01*
X77568094Y-77286247D02*
X77568094Y-77143390D01*
X77568094Y-77143390D02*
X77520475Y-76952914D01*
X77520475Y-76952914D02*
X77472856Y-76857676D01*
X77472856Y-76857676D02*
X77377618Y-76762438D01*
X77377618Y-76762438D02*
X77234761Y-76714819D01*
X77234761Y-76714819D02*
X77139523Y-76714819D01*
X77139523Y-76714819D02*
X76996666Y-76762438D01*
X76996666Y-76762438D02*
X76949047Y-76810057D01*
X75996666Y-77714819D02*
X76568094Y-77714819D01*
X76282380Y-77714819D02*
X76282380Y-76714819D01*
X76282380Y-76714819D02*
X76377618Y-76857676D01*
X76377618Y-76857676D02*
X76472856Y-76952914D01*
X76472856Y-76952914D02*
X76568094Y-77000533D01*
D11*
%TO.C,SpeedD1*%
X155760000Y-107010000D02*
X155760000Y-117930000D01*
X155760000Y-117930000D02*
X172900000Y-117930000D01*
X172900000Y-107010000D02*
X172900000Y-117930000D01*
X172900000Y-107010000D02*
G75*
G02*
X155760000Y-107010000I-8570000J0D01*
G01*
X155760000Y-107010000D02*
G75*
G02*
X172900000Y-107010000I8570000J0D01*
G01*
%TO.C,DelayC1*%
X105260000Y-84260000D02*
X105260000Y-95180000D01*
X105260000Y-95180000D02*
X122400000Y-95180000D01*
X122400000Y-84260000D02*
X122400000Y-95180000D01*
X122400000Y-84260000D02*
G75*
G02*
X105260000Y-84260000I-8570000J0D01*
G01*
X105260000Y-84260000D02*
G75*
G02*
X122400000Y-84260000I8570000J0D01*
G01*
%TO.C,FB-CD1*%
X52760000Y-107010000D02*
X52760000Y-117930000D01*
X52760000Y-117930000D02*
X69900000Y-117930000D01*
X69900000Y-107010000D02*
X69900000Y-117930000D01*
X69900000Y-107010000D02*
G75*
G02*
X52760000Y-107010000I-8570000J0D01*
G01*
X52760000Y-107010000D02*
G75*
G02*
X69900000Y-107010000I8570000J0D01*
G01*
%TO.C,SpeedB1*%
X155760000Y-61510000D02*
X155760000Y-72430000D01*
X155760000Y-72430000D02*
X172900000Y-72430000D01*
X172900000Y-61510000D02*
X172900000Y-72430000D01*
X172900000Y-61510000D02*
G75*
G02*
X155760000Y-61510000I-8570000J0D01*
G01*
X155760000Y-61510000D02*
G75*
G02*
X172900000Y-61510000I8570000J0D01*
G01*
%TO.C,DelayD1*%
X105260000Y-107010000D02*
X105260000Y-117930000D01*
X105260000Y-117930000D02*
X122400000Y-117930000D01*
X122400000Y-107010000D02*
X122400000Y-117930000D01*
X122400000Y-107010000D02*
G75*
G02*
X105260000Y-107010000I-8570000J0D01*
G01*
X105260000Y-107010000D02*
G75*
G02*
X122400000Y-107010000I8570000J0D01*
G01*
%TO.C,FB-BD1*%
X70260000Y-107010000D02*
X70260000Y-117930000D01*
X70260000Y-117930000D02*
X87400000Y-117930000D01*
X87400000Y-107010000D02*
X87400000Y-117930000D01*
X87400000Y-107010000D02*
G75*
G02*
X70260000Y-107010000I-8570000J0D01*
G01*
X70260000Y-107010000D02*
G75*
G02*
X87400000Y-107010000I8570000J0D01*
G01*
%TO.C,FB-DC1*%
X35260000Y-84260000D02*
X35260000Y-95180000D01*
X35260000Y-95180000D02*
X52400000Y-95180000D01*
X52400000Y-84260000D02*
X52400000Y-95180000D01*
X52400000Y-84260000D02*
G75*
G02*
X35260000Y-84260000I-8570000J0D01*
G01*
X35260000Y-84260000D02*
G75*
G02*
X52400000Y-84260000I8570000J0D01*
G01*
%TO.C,FB-AD1*%
X87760000Y-107010000D02*
X87760000Y-117930000D01*
X87760000Y-117930000D02*
X104900000Y-117930000D01*
X104900000Y-107010000D02*
X104900000Y-117930000D01*
X104900000Y-107010000D02*
G75*
G02*
X87760000Y-107010000I-8570000J0D01*
G01*
X87760000Y-107010000D02*
G75*
G02*
X104900000Y-107010000I8570000J0D01*
G01*
%TO.C,SpeedA1*%
X155760000Y-38760000D02*
X155760000Y-49680000D01*
X155760000Y-49680000D02*
X172900000Y-49680000D01*
X172900000Y-38760000D02*
X172900000Y-49680000D01*
X172900000Y-38760000D02*
G75*
G02*
X155760000Y-38760000I-8570000J0D01*
G01*
X155760000Y-38760000D02*
G75*
G02*
X172900000Y-38760000I8570000J0D01*
G01*
%TO.C,FB-BB1*%
X70260000Y-61510000D02*
X70260000Y-72430000D01*
X70260000Y-72430000D02*
X87400000Y-72430000D01*
X87400000Y-61510000D02*
X87400000Y-72430000D01*
X87400000Y-61510000D02*
G75*
G02*
X70260000Y-61510000I-8570000J0D01*
G01*
X70260000Y-61510000D02*
G75*
G02*
X87400000Y-61510000I8570000J0D01*
G01*
%TO.C,MixD1*%
X35260000Y-129760000D02*
X35260000Y-140680000D01*
X35260000Y-140680000D02*
X52400000Y-140680000D01*
X52400000Y-129760000D02*
X52400000Y-140680000D01*
X52400000Y-129760000D02*
G75*
G02*
X35260000Y-129760000I-8570000J0D01*
G01*
X35260000Y-129760000D02*
G75*
G02*
X52400000Y-129760000I8570000J0D01*
G01*
%TO.C,FB-CC1*%
X52760000Y-84260000D02*
X52760000Y-95180000D01*
X52760000Y-95180000D02*
X69900000Y-95180000D01*
X69900000Y-84260000D02*
X69900000Y-95180000D01*
X69900000Y-84260000D02*
G75*
G02*
X52760000Y-84260000I-8570000J0D01*
G01*
X52760000Y-84260000D02*
G75*
G02*
X69900000Y-84260000I8570000J0D01*
G01*
%TO.C,FB-AB1*%
X87760000Y-61510000D02*
X87760000Y-72430000D01*
X87760000Y-72430000D02*
X104900000Y-72430000D01*
X104900000Y-61510000D02*
X104900000Y-72430000D01*
X104900000Y-61510000D02*
G75*
G02*
X87760000Y-61510000I-8570000J0D01*
G01*
X87760000Y-61510000D02*
G75*
G02*
X104900000Y-61510000I8570000J0D01*
G01*
%TO.C,DepthA1*%
X138260000Y-38760000D02*
X138260000Y-49680000D01*
X138260000Y-49680000D02*
X155400000Y-49680000D01*
X155400000Y-38760000D02*
X155400000Y-49680000D01*
X155400000Y-38760000D02*
G75*
G02*
X138260000Y-38760000I-8570000J0D01*
G01*
X138260000Y-38760000D02*
G75*
G02*
X155400000Y-38760000I8570000J0D01*
G01*
%TO.C,FB-CB1*%
X52760000Y-61510000D02*
X52760000Y-72430000D01*
X52760000Y-72430000D02*
X69900000Y-72430000D01*
X69900000Y-61510000D02*
X69900000Y-72430000D01*
X69900000Y-61510000D02*
G75*
G02*
X52760000Y-61510000I-8570000J0D01*
G01*
X52760000Y-61510000D02*
G75*
G02*
X69900000Y-61510000I8570000J0D01*
G01*
%TO.C,FB-DD1*%
X35260000Y-107010000D02*
X35260000Y-117930000D01*
X35260000Y-117930000D02*
X52400000Y-117930000D01*
X52400000Y-107010000D02*
X52400000Y-117930000D01*
X52400000Y-107010000D02*
G75*
G02*
X35260000Y-107010000I-8570000J0D01*
G01*
X35260000Y-107010000D02*
G75*
G02*
X52400000Y-107010000I8570000J0D01*
G01*
%TO.C,MixA1*%
X87760000Y-129760000D02*
X87760000Y-140680000D01*
X87760000Y-140680000D02*
X104900000Y-140680000D01*
X104900000Y-129760000D02*
X104900000Y-140680000D01*
X104900000Y-129760000D02*
G75*
G02*
X87760000Y-129760000I-8570000J0D01*
G01*
X87760000Y-129760000D02*
G75*
G02*
X104900000Y-129760000I8570000J0D01*
G01*
%TO.C,FB-CA1*%
X52760000Y-38760000D02*
X52760000Y-49680000D01*
X52760000Y-49680000D02*
X69900000Y-49680000D01*
X69900000Y-38760000D02*
X69900000Y-49680000D01*
X69900000Y-38760000D02*
G75*
G02*
X52760000Y-38760000I-8570000J0D01*
G01*
X52760000Y-38760000D02*
G75*
G02*
X69900000Y-38760000I8570000J0D01*
G01*
%TO.C,FB-AC1*%
X87760000Y-84260000D02*
X87760000Y-95180000D01*
X87760000Y-95180000D02*
X104900000Y-95180000D01*
X104900000Y-84260000D02*
X104900000Y-95180000D01*
X104900000Y-84260000D02*
G75*
G02*
X87760000Y-84260000I-8570000J0D01*
G01*
X87760000Y-84260000D02*
G75*
G02*
X104900000Y-84260000I8570000J0D01*
G01*
%TO.C,DelayA1*%
X105260000Y-38760000D02*
X105260000Y-49680000D01*
X105260000Y-49680000D02*
X122400000Y-49680000D01*
X122400000Y-38760000D02*
X122400000Y-49680000D01*
X122400000Y-38760000D02*
G75*
G02*
X105260000Y-38760000I-8570000J0D01*
G01*
X105260000Y-38760000D02*
G75*
G02*
X122400000Y-38760000I8570000J0D01*
G01*
%TO.C,FB-DB1*%
X35260000Y-61510000D02*
X35260000Y-72430000D01*
X35260000Y-72430000D02*
X52400000Y-72430000D01*
X52400000Y-61510000D02*
X52400000Y-72430000D01*
X52400000Y-61510000D02*
G75*
G02*
X35260000Y-61510000I-8570000J0D01*
G01*
X35260000Y-61510000D02*
G75*
G02*
X52400000Y-61510000I8570000J0D01*
G01*
%TO.C,MixC1*%
X52760000Y-129760000D02*
X52760000Y-140680000D01*
X52760000Y-140680000D02*
X69900000Y-140680000D01*
X69900000Y-129760000D02*
X69900000Y-140680000D01*
X69900000Y-129760000D02*
G75*
G02*
X52760000Y-129760000I-8570000J0D01*
G01*
X52760000Y-129760000D02*
G75*
G02*
X69900000Y-129760000I8570000J0D01*
G01*
%TO.C,FB-AA1*%
X87760000Y-38760000D02*
X87760000Y-49680000D01*
X87760000Y-49680000D02*
X104900000Y-49680000D01*
X104900000Y-38760000D02*
X104900000Y-49680000D01*
X104900000Y-38760000D02*
G75*
G02*
X87760000Y-38760000I-8570000J0D01*
G01*
X87760000Y-38760000D02*
G75*
G02*
X104900000Y-38760000I8570000J0D01*
G01*
%TO.C,FB-BA1*%
X70260000Y-38760000D02*
X70260000Y-49680000D01*
X70260000Y-49680000D02*
X87400000Y-49680000D01*
X87400000Y-38760000D02*
X87400000Y-49680000D01*
X87400000Y-38760000D02*
G75*
G02*
X70260000Y-38760000I-8570000J0D01*
G01*
X70260000Y-38760000D02*
G75*
G02*
X87400000Y-38760000I8570000J0D01*
G01*
%TO.C,DepthB1*%
X138260000Y-61510000D02*
X138260000Y-72430000D01*
X138260000Y-72430000D02*
X155400000Y-72430000D01*
X155400000Y-61510000D02*
X155400000Y-72430000D01*
X155400000Y-61510000D02*
G75*
G02*
X138260000Y-61510000I-8570000J0D01*
G01*
X138260000Y-61510000D02*
G75*
G02*
X155400000Y-61510000I8570000J0D01*
G01*
%TO.C,SpeedC1*%
X155760000Y-84260000D02*
X155760000Y-95180000D01*
X155760000Y-95180000D02*
X172900000Y-95180000D01*
X172900000Y-84260000D02*
X172900000Y-95180000D01*
X172900000Y-84260000D02*
G75*
G02*
X155760000Y-84260000I-8570000J0D01*
G01*
X155760000Y-84260000D02*
G75*
G02*
X172900000Y-84260000I8570000J0D01*
G01*
%TO.C,DepthC1*%
X138260000Y-84260000D02*
X138260000Y-95180000D01*
X138260000Y-95180000D02*
X155400000Y-95180000D01*
X155400000Y-84260000D02*
X155400000Y-95180000D01*
X155400000Y-84260000D02*
G75*
G02*
X138260000Y-84260000I-8570000J0D01*
G01*
X138260000Y-84260000D02*
G75*
G02*
X155400000Y-84260000I8570000J0D01*
G01*
%TO.C,FB-DA1*%
X35260000Y-38760000D02*
X35260000Y-49680000D01*
X35260000Y-49680000D02*
X52400000Y-49680000D01*
X52400000Y-38760000D02*
X52400000Y-49680000D01*
X52400000Y-38760000D02*
G75*
G02*
X35260000Y-38760000I-8570000J0D01*
G01*
X35260000Y-38760000D02*
G75*
G02*
X52400000Y-38760000I8570000J0D01*
G01*
%TO.C,DelayB1*%
X105260000Y-61510000D02*
X105260000Y-72430000D01*
X105260000Y-72430000D02*
X122400000Y-72430000D01*
X122400000Y-61510000D02*
X122400000Y-72430000D01*
X122400000Y-61510000D02*
G75*
G02*
X105260000Y-61510000I-8570000J0D01*
G01*
X105260000Y-61510000D02*
G75*
G02*
X122400000Y-61510000I8570000J0D01*
G01*
%TO.C,MixB1*%
X70260000Y-129760000D02*
X70260000Y-140680000D01*
X70260000Y-140680000D02*
X87400000Y-140680000D01*
X87400000Y-129760000D02*
X87400000Y-140680000D01*
X87400000Y-129760000D02*
G75*
G02*
X70260000Y-129760000I-8570000J0D01*
G01*
X70260000Y-129760000D02*
G75*
G02*
X87400000Y-129760000I8570000J0D01*
G01*
%TO.C,DepthD1*%
X138260000Y-107010000D02*
X138260000Y-117930000D01*
X138260000Y-117930000D02*
X155400000Y-117930000D01*
X155400000Y-107010000D02*
X155400000Y-117930000D01*
X155400000Y-107010000D02*
G75*
G02*
X138260000Y-107010000I-8570000J0D01*
G01*
X138260000Y-107010000D02*
G75*
G02*
X155400000Y-107010000I8570000J0D01*
G01*
%TO.C,FB-BC1*%
X70260000Y-84260000D02*
X70260000Y-95180000D01*
X70260000Y-95180000D02*
X87400000Y-95180000D01*
X87400000Y-84260000D02*
X87400000Y-95180000D01*
X87400000Y-84260000D02*
G75*
G02*
X70260000Y-84260000I-8570000J0D01*
G01*
X70260000Y-84260000D02*
G75*
G02*
X87400000Y-84260000I8570000J0D01*
G01*
%TD*%
M02*
